<svg width="5656" height="705" viewBox="0 0 5656 705" fill="none" xmlns="http://www.w3.org/2000/svg">
<path d="M197.02 672.683C161.073 672.683 127.89 666.464 97.4731 654.027C67.7473 642.28 43.8975 623.968 25.9237 599.092C8.64125 573.526 0 541.049 0 501.662C0 479.55 3.11086 455.711 9.33255 430.144C19.0107 389.376 34.9106 348.607 57.0322 307.838C79.845 267.069 106.806 228.719 137.914 192.788C169.714 156.856 204.279 125.07 241.609 97.4302C278.939 69.0994 317.306 46.9877 356.71 31.0948C396.806 14.5109 436.555 6.21899 475.959 6.21899C487.711 6.21899 499.809 7.25547 512.253 9.32843C539.904 14.1654 560.298 24.5303 573.432 40.4232C587.259 55.6251 594.172 73.2454 594.172 93.2843C594.172 116.778 586.567 140.272 571.359 163.766C556.15 187.26 536.102 209.717 511.216 231.138C487.02 251.868 460.405 270.524 431.371 287.108C403.027 303.692 375.03 317.167 347.378 327.532C319.726 337.896 295.185 343.77 273.754 345.152C260.62 345.843 254.052 342.042 254.052 333.751C254.052 329.605 256.126 325.459 260.274 321.313C265.113 316.476 271.68 313.712 279.976 313.021C333.897 308.184 384.017 291.945 430.334 264.305C477.342 235.975 513.289 197.625 538.176 149.255C543.707 138.89 547.854 128.525 550.62 118.16C554.076 107.104 555.804 96.7393 555.804 87.0653C555.804 71.8635 551.311 59.0801 542.324 48.7151C534.028 37.6593 519.166 32.1313 497.735 32.1313C474.231 32.1313 446.579 39.3867 414.779 53.8976C382.98 67.7175 349.452 87.4109 314.195 112.978C279.63 138.544 245.411 168.948 211.537 204.189C178.355 238.739 148.284 276.743 121.323 318.203C95.0536 358.972 74.6603 402.159 60.143 447.765C51.1561 475.404 46.6627 500.971 46.6627 524.465C46.6627 566.616 61.18 597.711 90.2145 617.749C119.249 637.097 156.925 646.771 203.242 646.771C243.337 646.771 287.235 639.861 334.934 626.041C383.325 612.222 430.334 591.146 475.959 562.815C521.585 533.793 559.952 497.171 591.061 452.947C593.135 450.183 595.554 448.801 598.319 448.801C601.084 448.801 603.504 450.183 605.578 452.947C608.343 455.711 608.689 458.475 606.615 461.239C570.667 510.991 529.189 551.414 482.181 582.509C435.864 613.603 387.819 636.406 338.045 650.917C288.272 665.428 241.263 672.683 197.02 672.683Z" fill="#C79E56"/>
<path d="M938.772 648.881C927.02 648.881 915.959 646.117 905.589 640.589C895.911 635.061 888.653 624.696 883.813 609.494C881.74 603.275 880.703 594.638 880.703 583.582C880.703 568.38 882.777 551.451 886.924 532.794C891.072 514.137 895.566 498.244 900.405 485.115C896.948 486.497 890.381 492.716 880.703 503.772C871.716 514.137 860.309 526.92 846.483 542.122C833.349 556.633 818.486 571.489 801.895 586.691C785.995 601.202 769.404 613.295 752.121 622.968C734.839 632.642 717.902 637.479 701.311 637.479C690.25 637.479 678.498 634.37 666.054 628.151C653.611 621.241 643.587 612.604 635.983 602.239C625.613 588.419 620.429 574.253 620.429 559.742C620.429 541.086 626.65 521.738 639.094 501.699C652.228 481.66 668.819 462.312 688.867 443.655C709.606 424.307 731.382 407.033 754.195 391.831C777.699 375.938 799.821 362.809 820.56 352.444C841.99 341.388 859.272 334.133 872.407 330.678C886.233 326.532 901.787 324.459 919.07 324.459C928.748 324.459 938.772 325.841 949.141 328.605C959.511 330.678 968.152 334.478 975.065 340.006C980.595 342.77 985.089 346.571 988.545 351.408C992.002 356.244 993.73 361.427 993.73 366.955C993.73 372.483 991.311 374.21 986.471 372.137C980.941 363.845 973.337 358.663 963.659 356.59C954.672 353.826 945.339 352.444 935.661 352.444C908.009 352.444 877.592 361.427 844.409 379.393C811.227 397.359 781.501 418.434 755.232 442.619C746.936 449.529 735.53 461.621 721.013 478.896C707.187 495.48 694.398 513.791 682.646 533.83C670.893 553.869 665.017 572.18 665.017 588.764C665.017 597.747 667.437 605.694 672.276 612.604C675.041 617.441 679.535 619.859 685.756 619.859C695.435 619.859 708.224 614.677 724.123 604.312C740.715 593.947 757.651 581.509 774.934 566.998C792.216 551.796 807.771 537.285 821.597 523.465C836.114 509.645 846.483 499.626 852.705 493.407C856.162 489.952 862.729 483.042 872.407 472.677C882.777 461.621 893.837 449.874 905.589 437.436C917.341 424.999 927.711 414.288 936.698 405.305C946.376 396.322 952.598 391.831 955.363 391.831C958.819 391.831 964.35 392.867 971.954 394.94C980.25 396.322 987.163 398.741 992.693 402.196C998.223 405.651 999.26 410.142 995.804 415.67C977.83 441.928 963.313 469.568 952.252 498.589C941.883 526.92 935.661 549.378 933.587 565.961C932.896 568.725 932.55 571.489 932.55 574.253C932.55 576.326 932.55 578.745 932.55 581.509C932.55 609.149 942.228 622.968 961.585 622.968C971.954 622.968 985.78 616.75 1003.06 604.312C1020.34 591.874 1037.97 577.017 1055.95 559.742C1073.92 542.468 1090.17 525.884 1104.68 509.991C1119.89 493.407 1130.26 480.969 1135.79 472.677C1137.87 470.604 1139.94 469.568 1142.01 469.568C1144.78 469.568 1147.2 470.95 1149.27 473.714C1151.35 475.787 1151.35 478.551 1149.27 482.006C1141.67 494.443 1130.61 509.3 1116.09 526.575C1101.57 543.85 1085.33 561.124 1067.35 578.399C1049.38 595.674 1031.75 610.531 1014.47 622.968C1005.48 629.878 994.076 635.752 980.25 640.589C966.424 646.117 952.598 648.881 938.772 648.881Z" fill="#C79E56"/>
<path d="M1185.01 637.443C1173.26 637.443 1162.89 634.679 1153.9 629.151C1144.91 624.314 1138.69 614.64 1135.23 600.129C1133.16 592.528 1132.12 584.927 1132.12 577.326C1132.12 556.596 1137.31 536.558 1147.68 517.21C1158.74 497.171 1171.53 478.859 1186.05 462.276C1200.56 445.001 1213.01 430.49 1223.38 418.743C1228.91 413.215 1235.13 405.959 1242.04 396.976C1249.64 387.994 1253.45 379.011 1253.45 370.028C1253.45 364.5 1250.68 359.317 1245.15 354.48C1239.62 348.952 1229.6 345.152 1215.08 343.079C1206.78 341.697 1198.83 340.66 1191.23 339.969C1184.32 338.587 1177.06 337.896 1169.45 337.896C1150.1 364.154 1131.09 390.758 1112.42 417.706C1094.45 443.964 1075.09 469.876 1054.35 495.443C1049.51 500.28 1045.37 502.699 1041.91 502.699C1037.76 502.699 1035.69 500.626 1035.69 496.48C1035.69 492.334 1037.76 488.188 1041.91 484.042C1079.24 438.436 1111.38 389.721 1138.35 337.896C1134.89 337.896 1129.7 337.896 1122.79 337.896C1115.88 337.205 1110.35 336.515 1106.2 335.824C1101.36 334.442 1097.56 332.369 1094.79 329.605C1092.03 326.841 1090.65 324.077 1090.65 321.313C1090.65 317.167 1092.37 314.748 1095.83 314.057C1104.82 311.293 1114.5 307.147 1124.87 301.619C1135.23 296.091 1144.91 288.836 1153.9 279.853C1163.58 270.179 1172.57 260.16 1180.86 249.795C1189.16 238.739 1195.72 230.447 1200.56 224.919C1205.4 221.464 1210.59 219.736 1216.12 219.736C1219.57 219.736 1222.68 220.773 1225.45 222.846C1228.91 224.919 1230.63 228.028 1230.63 232.174C1230.63 237.011 1228.56 243.23 1224.41 250.831C1218.19 260.505 1211.28 271.216 1203.67 282.962C1196.76 294.709 1190.19 305.42 1183.97 315.094C1196.41 315.785 1208.86 316.476 1221.3 317.167C1233.74 317.858 1246.53 318.203 1259.67 318.203C1266.58 318.203 1273.15 318.203 1279.37 318.203C1286.28 317.512 1293.2 317.167 1300.11 317.167C1320.85 317.167 1331.22 322.349 1331.22 332.714C1331.22 339.624 1327.42 348.261 1319.81 358.626C1312.9 368.3 1304.26 379.011 1293.89 390.757C1270.38 417.706 1250.34 446.037 1233.74 475.75C1217.15 505.463 1206.09 528.266 1200.56 544.158C1195.03 560.742 1192.27 573.18 1192.27 581.472C1192.27 598.056 1198.83 606.348 1211.97 606.348C1223.72 606.348 1237.89 600.475 1254.48 588.728C1271.77 576.981 1289.39 562.815 1307.37 546.231C1325.34 528.957 1341.59 512.373 1356.1 496.48C1370.62 479.896 1380.99 467.458 1387.21 459.166C1388.6 457.093 1390.67 456.057 1393.43 456.057C1396.2 456.057 1398.62 457.439 1400.69 460.203C1402.77 462.276 1402.77 465.039 1400.69 468.494C1393.09 480.241 1382.03 495.098 1367.51 513.064C1352.99 530.339 1336.75 547.613 1318.77 564.888C1300.8 582.163 1283.17 597.02 1265.89 609.457C1256.9 616.367 1244.46 622.586 1228.56 628.114C1213.35 634.333 1198.83 637.443 1185.01 637.443Z" fill="#C79E56"/>
<path d="M1455.65 636.406C1436.3 636.406 1419.36 631.915 1404.84 622.932C1380.65 608.421 1368.55 582.163 1368.55 544.158C1368.55 528.266 1371.31 509.954 1376.84 489.224C1381.68 471.949 1390.32 453.293 1402.77 433.254C1415.21 412.524 1429.73 392.83 1446.32 374.174C1463.6 355.517 1482.27 340.315 1502.31 328.568C1522.36 316.821 1542.41 310.948 1562.46 310.948C1570.75 310.948 1578.01 311.984 1584.23 314.057C1592.53 316.821 1599.44 322.004 1604.97 329.605C1611.19 336.514 1614.31 345.497 1614.31 356.553C1614.31 368.3 1611.19 374.865 1604.97 376.247C1599.44 377.629 1596.68 376.247 1596.68 372.101C1596.68 370.719 1596.68 369.337 1596.68 367.955C1597.37 366.573 1597.71 365.536 1597.71 364.845C1597.71 359.317 1595.99 354.48 1592.53 350.334C1589.76 345.497 1584.23 343.079 1575.94 343.079C1564.88 343.079 1551.05 348.952 1534.46 360.699C1518.56 372.446 1501.97 388.339 1484.69 408.378C1468.1 427.726 1453.23 449.147 1440.1 472.641C1427.65 496.134 1419.36 519.628 1415.21 543.122C1414.52 546.577 1413.83 550.032 1413.14 553.487C1413.14 556.251 1413.14 559.36 1413.14 562.815C1413.14 578.708 1416.59 592.183 1423.51 603.238C1431.11 613.603 1442.86 618.786 1458.76 618.786C1478.12 618.786 1496.78 611.53 1514.76 597.019C1532.73 581.818 1548.63 563.852 1562.46 543.122C1576.98 522.392 1587.69 504.081 1594.6 488.188C1600.13 475.75 1603.94 465.039 1606.01 456.057C1608.08 447.074 1609.12 439.473 1609.12 433.254C1609.12 427.726 1608.43 422.889 1607.05 418.743C1606.36 414.597 1605.32 411.142 1603.94 408.378C1602.55 404.232 1601.86 401.122 1601.86 399.049C1601.86 393.522 1603.94 389.03 1608.08 385.575C1612.92 382.12 1617.76 380.393 1622.6 380.393C1626.75 380.393 1631.24 381.775 1636.08 384.539C1641.61 385.921 1649.22 386.957 1658.89 387.648C1668.57 388.339 1678.94 388.685 1690 388.685C1701.75 388.685 1713.51 388.339 1725.26 387.648C1737.7 386.957 1748.42 385.575 1757.4 383.502C1758.79 382.811 1760.86 382.466 1763.63 382.466C1768.46 382.466 1770.88 383.848 1770.88 386.612C1770.88 389.376 1768.46 391.794 1763.63 393.867C1739.43 404.923 1717.65 410.796 1698.3 411.487C1679.63 412.178 1663.39 412.524 1649.56 412.524C1650.94 429.799 1647.14 448.456 1638.16 468.494C1629.17 487.842 1619.84 505.117 1610.16 520.319C1598.41 537.594 1584.92 555.214 1569.72 573.18C1554.51 591.146 1537.57 606.348 1518.91 618.786C1500.24 630.533 1479.16 636.406 1455.65 636.406Z" fill="#C79E56"/>
<path d="M1804.99 635.37C1775.96 635.37 1755.57 628.114 1743.81 613.603C1732.75 599.092 1727.22 581.127 1727.22 559.706C1727.22 539.667 1731.72 514.446 1740.7 484.042C1750.38 453.638 1762.82 420.816 1778.03 385.575C1793.24 350.334 1809.49 315.439 1826.77 280.889C1844.74 245.649 1862.37 213.517 1879.65 184.496C1897.63 154.783 1913.18 130.944 1926.32 112.978C1939.45 95.7028 1953.62 78.4279 1968.83 61.1531C1984.04 43.8782 2000.98 29.3673 2019.64 17.6204C2038.31 5.87344 2059.39 0 2082.9 0C2098.8 0 2112.28 4.49149 2123.34 13.4744C2135.09 21.7664 2140.96 34.5497 2140.96 51.8246C2140.96 58.7345 2139.58 66.681 2136.82 75.6639C2134.74 84.6469 2130.94 93.9754 2125.41 103.649C2083.24 176.895 2032.78 244.612 1974.02 306.802C1915.95 368.991 1854.42 426.689 1789.44 479.896C1786.67 490.261 1783.91 499.589 1781.14 507.881C1779.07 516.173 1777.34 522.738 1775.96 527.575C1775.27 531.029 1774.92 534.83 1774.92 538.976C1774.92 542.431 1774.92 545.886 1774.92 549.341C1774.92 565.925 1777.69 580.436 1783.22 592.874C1788.75 605.312 1798.08 611.53 1811.21 611.53C1823.66 611.53 1838.87 605.657 1856.84 593.91C1875.51 581.472 1894.17 566.616 1912.84 549.341C1931.5 531.375 1948.44 514.1 1963.65 497.516C1978.85 480.932 1989.57 468.149 1995.79 459.166C1997.87 457.093 1999.94 456.057 2002.01 456.057C2004.78 456.057 2006.85 457.439 2008.23 460.203C2010.31 462.967 2010.31 466.421 2008.23 470.567C2001.32 482.314 1990.26 496.825 1975.05 514.1C1959.84 531.375 1942.91 548.995 1924.24 566.961C1905.58 584.236 1887.6 599.438 1870.32 612.567C1848.89 627.769 1827.11 635.37 1804.99 635.37ZM1803.96 438.436C1830.23 420.47 1857.53 397.322 1885.88 368.991C1914.22 339.969 1941.87 308.529 1968.83 274.67C1996.48 240.812 2021.37 207.298 2043.49 174.131C2066.3 140.963 2084.62 110.905 2098.45 83.9559C2102.6 76.3549 2105.36 69.7904 2106.75 64.2625C2108.82 58.0436 2109.86 52.5156 2109.86 47.6786C2109.86 34.5498 2104.33 27.9853 2093.26 27.9853C2083.59 27.9853 2071.49 33.1677 2056.97 43.5327C2019.64 72.5544 1985.08 109.868 1953.28 155.474C1921.48 200.389 1893.13 247.722 1868.25 297.473C1843.36 347.225 1821.93 394.213 1803.96 438.436Z" fill="#C79E56"/>
<path d="M2210.37 704.815C2195.16 704.815 2182.71 699.978 2173.04 690.304C2163.36 680.63 2158.52 667.155 2158.52 649.881C2158.52 640.207 2160.59 629.496 2164.74 617.749C2168.2 605.312 2174.42 592.183 2183.41 578.363C2199.31 553.487 2219.7 525.847 2244.59 495.443C2270.16 464.349 2297.12 433.599 2325.47 403.195C2353.81 372.792 2380.43 345.152 2405.31 320.276C2430.89 294.709 2451.28 275.016 2466.49 261.196C2473.41 240.466 2479.97 219.045 2486.19 196.934C2493.11 174.822 2500.02 152.019 2506.93 128.525C2487.58 146.491 2465.46 159.965 2440.57 168.948C2416.37 177.931 2393.56 183.114 2372.13 184.496H2371.09C2364.18 184.496 2360.72 182.077 2360.72 177.24C2360.72 171.712 2364.87 168.603 2373.17 167.912C2393.22 165.839 2413.95 158.238 2435.38 145.109C2456.81 131.289 2476.52 114.014 2494.49 93.2843C2513.16 71.8635 2527.33 49.0606 2537.01 24.8758C2538.39 20.7298 2542.88 17.6204 2550.49 15.5474C2558.78 13.4744 2567.42 12.4379 2576.41 12.4379C2584.01 12.4379 2590.58 13.4744 2596.11 15.5474C2602.33 16.9294 2604.75 20.0389 2603.37 24.8758C2590.93 56.6616 2578.83 87.4109 2567.08 117.124C2555.32 146.145 2543.92 174.476 2532.86 202.116C2573.64 167.566 2611.67 138.89 2646.92 116.087C2682.87 92.5933 2711.9 80.1554 2734.03 78.7734C2773.43 76.7004 2804.19 83.2648 2826.31 98.4667C2849.13 113.669 2865.03 134.053 2874.01 159.62C2883.69 184.496 2888.53 211.099 2888.53 239.43C2888.53 246.34 2888.19 252.904 2887.49 259.123C2887.49 265.342 2887.15 271.561 2886.46 277.78C2883 309.566 2876.09 345.843 2865.72 386.612C2855.35 427.38 2844.29 465.385 2832.54 500.626C2831.15 504.081 2829.08 510.3 2826.31 519.283C2823.55 527.575 2823.2 531.721 2825.28 531.721C2825.97 531.721 2829.43 527.229 2835.65 518.246C2852.93 489.915 2869.52 462.275 2885.42 435.327C2902.01 407.687 2919.64 379.356 2938.3 350.334C2965.96 307.493 2996.03 264.306 3028.52 220.773C3061.7 177.24 3094.88 138.199 3128.07 103.649C3141.2 89.8294 3154.68 79.4644 3168.51 72.5544C3183.02 65.6445 3196.5 62.1896 3208.95 62.1896C3222.77 62.1896 3234.18 67.0265 3243.17 76.7004C3252.85 85.6834 3257.68 99.8487 3257.68 119.197C3257.68 124.034 3256.99 129.561 3255.61 135.78C3254.92 141.308 3253.88 147.527 3252.5 154.437C3244.2 187.605 3234.53 218.009 3223.47 245.649C3212.4 273.288 3201.34 300.583 3190.28 327.532C3179.22 353.789 3169.2 381.429 3160.21 410.451C3151.92 439.473 3146.04 471.604 3142.58 506.845C3141.89 513.064 3141.2 518.937 3140.51 524.465C3140.51 529.993 3140.51 535.176 3140.51 540.013C3140.51 563.506 3143.97 580.781 3150.88 591.837C3157.79 602.202 3166.78 607.384 3177.84 607.384C3190.97 607.384 3206.18 601.857 3223.47 590.801C3241.44 579.054 3259.41 564.888 3277.39 548.304C3295.36 531.03 3311.61 514.446 3326.12 498.553C3340.64 481.969 3351.36 468.84 3358.27 459.166C3359.65 457.093 3361.73 456.057 3364.49 456.057C3367.26 456.057 3369.67 457.093 3371.75 459.166C3373.82 461.239 3373.82 464.003 3371.75 467.458C3362.76 481.278 3349.97 497.516 3333.38 516.173C3317.48 534.139 3300.54 551.759 3282.57 569.034C3265.29 585.618 3249.73 599.093 3235.91 609.457C3225.54 617.058 3213.44 623.277 3199.62 628.114C3186.48 632.951 3173.35 635.37 3160.21 635.37C3145 635.37 3131.18 631.569 3118.73 623.968C3106.29 616.367 3097.65 603.239 3092.81 584.582C3090.74 577.672 3089.35 570.416 3088.66 562.815C3087.97 555.214 3087.62 547.268 3087.62 538.976C3087.62 509.954 3091.77 477.823 3100.07 442.582C3108.36 406.65 3118.73 371.064 3131.18 335.824C3143.62 299.892 3155.37 267.415 3166.43 238.393C3178.19 208.68 3187.17 185.187 3193.39 167.912C3198.23 158.238 3200.65 149.255 3200.65 140.963C3200.65 126.452 3194.43 119.197 3181.99 119.197C3171.62 119.197 3159.52 125.07 3145.69 136.817C3125.65 154.092 3103.52 176.549 3079.33 204.189C3055.83 231.829 3031.63 262.233 3006.74 295.4C2982.55 328.568 2958.7 362.772 2935.19 398.013C2912.38 432.563 2891.3 466.076 2871.94 498.553C2853.27 530.339 2838.07 558.669 2826.31 583.545C2821.47 593.91 2815.94 599.092 2809.72 599.092C2804.88 599.092 2800.04 595.983 2795.21 589.764C2791.06 583.545 2787.6 576.981 2784.84 570.071C2782.76 562.47 2782.42 557.287 2783.8 554.523C2792.79 532.412 2801.08 505.463 2808.69 473.677C2816.29 441.2 2822.51 406.996 2827.35 371.064C2832.19 334.442 2834.61 299.546 2834.61 266.379C2834.61 222.155 2829.08 184.841 2818.02 154.437C2806.96 123.343 2787.6 107.795 2759.95 107.795C2741.98 107.795 2719.16 115.396 2691.51 130.598C2663.86 145.8 2633.79 166.184 2601.3 191.751C2569.5 217.318 2536.66 245.649 2502.79 276.743C2496.56 291.945 2487.23 314.057 2474.79 343.079C2463.04 372.101 2448.86 404.232 2432.27 439.473C2416.37 474.713 2398.4 509.954 2378.35 545.195C2359 579.745 2338.95 610.149 2318.21 636.406C2299.54 659.9 2280.88 677.175 2262.21 688.231C2243.55 699.287 2226.27 704.815 2210.37 704.815ZM2215.55 668.538C2233.53 668.538 2251.84 658.864 2270.51 639.516C2289.87 620.859 2308.88 597.02 2327.54 567.998C2346.9 538.285 2364.53 507.536 2380.43 475.75C2396.33 443.964 2409.81 414.597 2420.87 387.648C2432.62 360.699 2440.91 340.66 2445.75 327.532C2426.4 346.188 2406 366.918 2384.57 389.721C2363.14 411.833 2342.06 434.636 2321.32 458.13C2301.27 480.932 2282.95 502.353 2266.36 522.392C2249.77 542.431 2236.64 559.015 2226.96 572.144C2215.9 587.346 2207.6 601.165 2202.07 613.603C2197.23 625.35 2194.81 635.715 2194.81 644.698C2194.81 660.591 2201.73 668.538 2215.55 668.538Z" fill="#C79E56"/>
<path d="M3426.6 636.406C3407.24 636.406 3390.3 631.915 3375.79 622.932C3351.59 608.421 3339.49 582.163 3339.49 544.158C3339.49 528.266 3342.26 509.954 3347.79 489.224C3352.63 471.949 3361.27 453.293 3373.71 433.254C3386.15 412.524 3400.67 392.83 3417.26 374.174C3434.55 355.517 3453.21 340.315 3473.26 328.568C3493.31 316.821 3513.35 310.948 3533.4 310.948C3541.7 310.948 3548.96 311.984 3555.18 314.057C3563.47 316.821 3570.39 322.004 3575.92 329.605C3582.14 336.514 3585.25 345.497 3585.25 356.553C3585.25 368.3 3582.14 374.865 3575.92 376.247C3570.39 377.629 3567.62 376.247 3567.62 372.101C3567.62 370.719 3567.62 369.337 3567.62 367.955C3568.31 366.573 3568.66 365.536 3568.66 364.845C3568.66 359.317 3566.93 354.48 3563.47 350.334C3560.71 345.497 3555.18 343.079 3546.88 343.079C3535.82 343.079 3521.99 348.952 3505.4 360.699C3489.5 372.446 3472.91 388.339 3455.63 408.378C3439.04 427.726 3424.18 449.147 3411.04 472.641C3398.6 496.134 3390.3 519.628 3386.15 543.122C3385.46 546.577 3384.77 550.032 3384.08 553.487C3384.08 556.251 3384.08 559.36 3384.08 562.815C3384.08 578.708 3387.54 592.183 3394.45 603.238C3402.05 613.603 3413.81 618.786 3429.71 618.786C3449.06 618.786 3467.73 611.53 3485.7 597.019C3503.68 581.818 3519.58 563.852 3533.4 543.122C3547.92 522.392 3558.63 504.081 3565.55 488.188C3571.08 475.75 3574.88 465.039 3576.95 456.057C3579.03 447.074 3580.06 439.473 3580.06 433.254C3580.06 427.726 3579.37 422.889 3577.99 418.743C3577.3 414.597 3576.26 411.142 3574.88 408.378C3573.5 404.232 3572.81 401.122 3572.81 399.049C3572.81 393.522 3574.88 389.03 3579.03 385.575C3583.87 382.12 3588.71 380.393 3593.54 380.393C3597.69 380.393 3602.19 381.775 3607.02 384.539C3612.56 385.921 3620.16 386.957 3629.84 387.648C3639.52 388.339 3649.89 388.685 3660.95 388.685C3672.7 388.685 3684.45 388.339 3696.2 387.648C3708.65 386.957 3719.36 385.575 3728.35 383.502C3729.73 382.811 3731.8 382.466 3734.57 382.466C3739.41 382.466 3741.83 383.848 3741.83 386.612C3741.83 389.376 3739.41 391.794 3734.57 393.867C3710.37 404.923 3688.6 410.796 3669.24 411.487C3650.58 412.178 3634.33 412.524 3620.51 412.524C3621.89 429.799 3618.09 448.456 3609.1 468.494C3600.11 487.842 3590.78 505.117 3581.1 520.319C3569.35 537.594 3555.87 555.214 3540.66 573.18C3525.45 591.146 3508.51 606.348 3489.85 618.786C3471.18 630.533 3450.1 636.406 3426.6 636.406Z" fill="#C79E56"/>
<path d="M3666.02 638.479C3661.18 638.479 3659.8 636.061 3661.87 631.224C3663.95 627.078 3667.75 617.749 3673.28 603.238C3678.81 588.037 3685.03 570.071 3691.94 549.341C3699.55 528.611 3707.15 507.19 3714.76 485.078C3722.36 462.967 3729.27 442.237 3735.5 422.889C3742.41 403.541 3747.94 388.339 3752.09 377.283C3753.47 373.137 3754.85 367.264 3756.23 359.663C3757.62 351.371 3760.38 344.115 3764.53 337.896C3769.37 330.986 3777.32 327.532 3788.38 327.532C3809.12 327.532 3819.49 332.369 3819.49 342.043C3819.49 345.497 3817.76 351.371 3814.3 359.663C3806.01 378.32 3797.02 399.74 3787.34 423.925C3777.67 448.11 3769.02 470.913 3761.42 492.334C3753.82 513.755 3747.94 530.339 3743.79 542.086C3750.7 532.412 3761.77 518.592 3776.97 500.626C3792.87 482.66 3810.5 463.312 3829.86 442.582C3849.21 421.852 3869.26 401.813 3890 382.466C3911.43 363.118 3931.13 347.57 3949.11 335.824C3967.77 323.386 3983.67 317.167 3996.81 317.167C4013.4 317.167 4021.69 326.15 4021.69 344.115C4021.69 350.334 4019.97 359.663 4016.51 372.101C4010.29 389.375 4002.34 406.305 3992.66 422.889C3982.98 438.782 3974.34 455.711 3966.74 473.677C3953.6 506.154 3946 532.412 3943.92 552.45C3943.23 555.214 3942.89 557.978 3942.89 560.742C3942.89 562.815 3942.89 565.234 3942.89 567.998C3942.89 595.638 3952.22 609.457 3970.88 609.457C3981.25 609.457 3995.08 603.239 4012.36 590.801C4029.64 578.363 4047.27 563.506 4065.25 546.231C4083.91 528.957 4100.5 512.373 4115.02 496.48C4129.54 479.896 4139.56 467.458 4145.09 459.166C4147.16 457.093 4149.24 456.057 4151.31 456.057C4154.08 456.057 4156.15 457.093 4157.53 459.166C4159.61 461.239 4159.95 464.003 4158.57 467.458C4152.35 479.205 4141.63 494.061 4126.43 512.027C4111.91 529.302 4095.66 546.922 4077.69 564.888C4059.71 582.163 4042.09 597.02 4024.8 609.457C4014.43 616.367 4001.65 622.586 3986.44 628.114C3971.23 633.642 3956.02 636.061 3940.81 635.37C3921.46 633.297 3907.63 626.732 3899.33 615.676C3891.04 603.929 3886.89 590.11 3886.89 574.217C3886.89 555.56 3890.35 535.866 3897.26 515.137C3904.86 493.716 3913.16 473.677 3922.15 455.02C3931.13 436.363 3938.39 422.198 3943.92 412.524C3949.45 401.468 3952.22 392.831 3952.22 386.612C3952.22 381.084 3949.8 378.32 3944.96 378.32C3940.12 378.32 3932.86 381.429 3923.18 387.648C3913.51 393.867 3900.37 404.577 3883.78 419.779C3868.57 432.908 3852.33 450.183 3835.04 471.604C3817.76 492.334 3800.82 513.755 3784.23 535.867C3768.33 557.978 3754.16 576.981 3741.72 592.874C3729.97 608.766 3721.67 618.095 3716.83 620.859C3713.37 622.932 3705.42 626.387 3692.98 631.224C3681.23 636.061 3672.24 638.479 3666.02 638.479Z" fill="#C79E56"/>
<path d="M4184.42 635.37C4171.98 635.37 4160.57 632.606 4150.2 627.078C4140.52 621.55 4133.26 611.185 4128.42 595.983C4127.73 593.91 4127.04 591.837 4126.35 589.764C4126.35 587.691 4126.35 585.273 4126.35 582.509C4126.35 568.689 4129.46 551.414 4135.68 530.684C4141.9 509.954 4149.51 489.915 4158.5 470.567C4154.35 476.095 4149.51 483.005 4143.98 491.297C4138.45 498.898 4130.5 508.918 4120.13 521.356C4117.36 524.12 4114.25 525.502 4110.79 525.502C4105.96 525.502 4103.54 522.738 4103.54 517.21C4103.54 513.064 4104.92 509.609 4107.68 506.845C4125.66 484.042 4141.56 463.658 4155.38 445.692C4169.9 427.726 4180.62 412.524 4187.53 400.086C4187.53 398.704 4189.6 394.558 4193.75 387.648C4197.9 380.047 4203.43 369.682 4210.34 356.553C4204.81 357.244 4199.97 357.935 4195.83 358.626C4192.37 358.626 4189.26 358.626 4186.49 358.626C4181.65 358.626 4177.51 356.553 4174.05 352.407C4170.59 348.261 4170.25 343.079 4173.01 336.86C4176.47 327.186 4184.07 321.658 4195.83 320.276C4207.58 318.894 4217.95 317.858 4226.93 317.167C4227.62 315.785 4229.01 315.094 4231.08 315.094C4239.38 299.892 4247.33 285.035 4254.93 270.524C4262.54 256.014 4268.76 243.921 4273.6 234.247C4279.13 224.573 4281.89 219.391 4281.89 218.7C4295.72 196.588 4304.7 182.077 4308.85 175.167C4313 167.566 4318.53 163.075 4325.44 161.693C4333.05 161.002 4341 161.347 4349.29 162.729C4358.28 164.111 4364.16 167.221 4366.92 172.058C4369 174.822 4370.03 178.277 4370.03 182.423C4370.03 188.642 4368.65 194.861 4365.88 201.079C4363.12 206.607 4360.35 211.099 4357.59 214.554C4354.82 219.391 4351.02 222.846 4346.18 224.919C4342.03 226.301 4338.23 230.447 4334.78 237.357C4327.86 250.486 4320.26 264.651 4311.96 279.853C4303.67 295.055 4295.03 309.566 4286.04 323.386L4298.48 322.349C4315.07 320.967 4330.63 319.24 4345.15 317.167C4360.35 315.094 4377.64 314.403 4396.99 315.094C4400.45 315.094 4403.91 315.785 4407.36 317.167C4411.51 317.858 4413.58 319.24 4413.58 321.313C4413.58 324.077 4404.6 327.877 4386.62 332.714C4379.71 335.478 4364.5 338.588 4341 342.043C4318.19 344.806 4294.68 347.57 4270.49 350.334C4263.57 363.463 4257.35 374.519 4251.82 383.502C4246.29 391.794 4242.49 398.013 4240.41 402.159C4225.21 433.945 4211.38 462.967 4198.94 489.224C4187.18 514.791 4180.62 535.867 4179.23 552.45C4178.54 555.214 4178.2 557.978 4178.2 560.742C4178.2 562.815 4178.2 565.234 4178.2 567.998C4178.2 595.638 4187.18 609.457 4205.16 609.457C4216.22 609.457 4230.39 603.584 4247.67 591.837C4264.96 579.399 4282.58 564.543 4300.56 547.268C4318.53 529.302 4334.78 512.373 4349.29 496.48C4364.5 479.896 4374.87 467.458 4380.4 459.166C4382.48 457.093 4384.55 456.057 4386.62 456.057C4389.39 456.057 4391.46 457.093 4392.85 459.166C4394.92 461.239 4395.26 464.003 4393.88 467.458C4387.66 479.205 4376.94 494.061 4361.74 512.027C4347.22 529.302 4330.63 546.922 4311.96 564.888C4293.99 582.163 4276.36 597.02 4259.08 609.457C4250.09 616.367 4238.69 622.241 4224.86 627.078C4211.72 632.606 4198.24 635.37 4184.42 635.37Z" fill="#C79E56"/>
<path d="M4462.4 640.552C4431.29 640.552 4404.33 633.297 4381.51 618.786C4358.7 604.275 4347.29 582.163 4347.29 552.45C4347.29 536.557 4352.13 517.21 4361.81 494.407C4368.72 478.514 4381.51 460.203 4400.18 439.473C4418.84 418.743 4440.62 398.704 4465.51 379.356C4490.39 359.317 4515.63 343.079 4541.2 330.641C4566.78 317.512 4589.94 310.948 4610.68 310.948C4618.28 310.948 4625.2 311.984 4631.42 314.057C4643.17 318.203 4651.12 324.768 4655.27 333.751C4660.11 342.733 4662.53 352.062 4662.53 361.736C4662.53 370.719 4661.14 379.356 4658.38 387.648C4655.61 395.94 4652.16 403.196 4648.01 409.414C4635.57 428.071 4617.59 444.655 4594.09 459.166C4571.28 473.677 4547.77 485.078 4523.58 493.37C4500.07 501.662 4480.71 506.499 4465.51 507.881H4463.43C4454.45 507.881 4449.95 505.117 4449.95 499.589C4449.95 496.134 4452.72 494.407 4458.25 494.407C4474.84 493.025 4495.58 485.424 4520.46 471.604C4546.04 457.093 4568.51 442.237 4587.87 427.035C4596.16 420.125 4605.84 410.451 4616.9 398.013C4628.65 385.575 4634.53 373.483 4634.53 361.736C4634.53 349.298 4628.65 343.079 4616.9 343.079C4610.68 343.079 4604.11 344.461 4597.2 347.225C4590.98 349.989 4585.79 352.062 4581.64 353.444C4561.6 363.118 4539.48 378.32 4515.28 399.049C4491.08 419.088 4468.96 441.891 4448.92 467.458C4429.56 492.334 4416.08 517.555 4408.47 543.122C4406.4 548.65 4405.02 554.178 4404.33 559.706C4403.63 564.543 4403.29 569.38 4403.29 574.217C4403.29 590.801 4408.47 602.548 4418.84 609.457C4429.9 616.367 4443.04 619.822 4458.25 619.822C4481.06 619.822 4504.56 614.985 4528.76 605.311C4552.96 594.947 4576.46 581.818 4599.27 565.925C4622.09 550.032 4642.83 533.103 4661.49 515.137C4680.85 496.48 4697.09 478.514 4710.23 461.239C4712.3 458.475 4714.72 457.093 4717.48 457.093C4720.25 456.402 4721.98 456.748 4722.67 458.13C4725.44 458.821 4726.82 460.894 4726.82 464.349C4726.82 467.113 4726.13 469.877 4724.74 472.641C4705.39 499.589 4681.88 525.847 4654.23 551.414C4627.27 576.981 4597.2 598.401 4564.02 615.676C4531.53 632.26 4497.65 640.552 4462.4 640.552Z" fill="#C79E56"/>
<path d="M4862.58 264.305C4853.6 264.305 4844.26 263.614 4834.58 262.232C4824.91 260.159 4820.07 253.595 4820.07 242.539C4820.07 240.466 4824.56 235.629 4833.55 228.028C4843.23 220.427 4852.9 212.826 4862.58 205.225C4872.95 196.934 4879.17 192.097 4881.25 190.715C4893 181.041 4900.26 176.204 4903.02 176.204C4906.48 176.204 4906.48 180.695 4903.02 189.678C4899.57 198.661 4897.84 206.607 4897.84 213.517C4897.84 216.972 4895.77 222.846 4891.62 231.138C4887.47 239.43 4882.63 247.031 4877.1 253.941C4871.57 260.851 4866.73 264.305 4862.58 264.305ZM4749.56 635.37C4737.11 635.37 4725.71 632.606 4715.34 627.078C4705.66 621.55 4698.4 611.185 4693.56 595.983C4692.87 593.91 4692.18 591.837 4691.49 589.764C4691.49 587.691 4691.49 585.273 4691.49 582.509C4691.49 568.689 4694.6 551.414 4700.82 530.684C4707.04 509.954 4714.65 489.915 4723.63 470.567C4719.49 476.095 4714.64 483.005 4709.11 491.297C4703.58 498.898 4695.63 508.918 4685.26 521.356C4682.5 524.12 4679.39 525.502 4675.93 525.502C4671.09 525.502 4668.67 522.738 4668.67 517.21C4668.67 513.064 4670.06 509.609 4672.82 506.845C4690.8 484.042 4706.7 463.658 4720.52 445.692C4735.04 427.726 4745.75 412.524 4752.67 400.086C4752.67 399.395 4752.32 399.049 4751.63 399.049C4751.63 398.358 4751.63 397.667 4751.63 396.976C4751.63 394.903 4752.67 391.794 4754.74 387.648C4760.27 371.064 4765.8 357.244 4771.33 346.188C4777.55 334.441 4784.12 327.877 4791.03 326.495C4792.42 326.495 4793.8 326.495 4795.18 326.495C4796.56 325.804 4797.95 325.459 4799.33 325.459C4806.93 325.459 4813.85 327.186 4820.07 330.641C4826.29 334.096 4829.4 339.278 4829.4 346.188C4829.4 352.407 4826.98 360.008 4822.14 368.991C4817.99 377.974 4812.46 389.03 4805.55 402.159C4790.34 433.945 4776.52 462.967 4764.07 489.224C4752.32 514.791 4745.75 535.867 4744.37 552.45C4743.68 555.214 4743.33 557.978 4743.33 560.742C4743.33 562.815 4743.33 565.234 4743.33 567.998C4743.33 595.638 4752.32 609.457 4770.29 609.457C4781.36 609.457 4795.53 603.584 4812.81 591.837C4830.09 579.399 4847.72 564.543 4865.69 547.268C4883.67 529.302 4899.91 512.373 4914.43 496.48C4929.64 479.896 4940.01 467.458 4945.54 459.166C4947.61 457.093 4949.69 456.057 4951.76 456.057C4954.53 456.057 4956.6 457.093 4957.98 459.166C4960.06 461.239 4960.4 464.003 4959.02 467.458C4952.8 479.205 4942.08 494.061 4926.87 512.027C4912.36 529.302 4895.77 546.922 4877.1 564.888C4859.13 582.163 4841.5 597.02 4824.22 609.457C4815.23 616.367 4803.82 622.241 4790 627.078C4776.86 632.606 4763.38 635.37 4749.56 635.37Z" fill="#C79E56"/>
<path d="M5069.86 637.443C5058.11 637.443 5047.74 634.679 5038.76 629.151C5029.77 624.314 5023.55 614.64 5020.09 600.129C5018.02 592.528 5016.98 584.927 5016.98 577.326C5016.98 556.596 5022.16 536.558 5032.53 517.21C5043.59 497.171 5056.38 478.859 5070.9 462.276C5085.42 445.001 5097.86 430.49 5108.23 418.743C5113.76 413.215 5119.98 405.959 5126.9 396.976C5134.5 387.994 5138.3 379.011 5138.3 370.028C5138.3 364.5 5135.54 359.317 5130.01 354.48C5124.48 348.952 5114.45 345.152 5099.94 343.079C5091.64 341.697 5083.69 340.66 5076.09 339.969C5069.17 338.587 5061.91 337.896 5054.31 337.896C5034.95 364.154 5015.94 390.758 4997.28 417.706C4979.3 443.964 4959.95 469.876 4939.21 495.443C4934.37 500.28 4930.22 502.699 4926.77 502.699C4922.62 502.699 4920.54 500.626 4920.54 496.48C4920.54 492.334 4922.62 488.188 4926.77 484.042C4964.1 438.436 4996.24 389.721 5023.2 337.896C5019.75 337.896 5014.56 337.896 5007.65 337.896C5000.73 337.205 4995.2 336.515 4991.06 335.824C4986.22 334.442 4982.42 332.369 4979.65 329.605C4976.89 326.841 4975.5 324.077 4975.5 321.313C4975.5 317.167 4977.23 314.748 4980.69 314.057C4989.67 311.293 4999.35 307.147 5009.72 301.619C5020.09 296.091 5029.77 288.836 5038.76 279.853C5048.43 270.179 5057.42 260.16 5065.72 249.795C5074.01 238.739 5080.58 230.447 5085.42 224.919C5090.26 221.464 5095.44 219.736 5100.97 219.736C5104.43 219.736 5107.54 220.773 5110.31 222.846C5113.76 224.919 5115.49 228.028 5115.49 232.174C5115.49 237.011 5113.42 243.23 5109.27 250.831C5103.05 260.505 5096.13 271.216 5088.53 282.962C5081.62 294.709 5075.05 305.42 5068.83 315.094C5081.27 315.785 5093.71 316.476 5106.16 317.167C5118.6 317.858 5131.39 318.203 5144.52 318.203C5151.44 318.203 5158 318.203 5164.23 318.203C5171.14 317.512 5178.05 317.167 5184.97 317.167C5205.7 317.167 5216.07 322.349 5216.07 332.714C5216.07 339.624 5212.27 348.261 5204.67 358.626C5197.75 368.3 5189.11 379.011 5178.74 390.757C5155.24 417.706 5135.19 446.037 5118.6 475.75C5102.01 505.463 5090.95 528.266 5085.42 544.158C5079.89 560.742 5077.12 573.18 5077.12 581.472C5077.12 598.056 5083.69 606.348 5096.83 606.348C5108.58 606.348 5122.75 600.475 5139.34 588.728C5156.62 576.981 5174.25 562.815 5192.22 546.231C5210.2 528.957 5226.44 512.373 5240.96 496.48C5255.48 479.896 5265.85 467.458 5272.07 459.166C5273.45 457.093 5275.53 456.057 5278.29 456.057C5281.06 456.057 5283.48 457.439 5285.55 460.203C5287.62 462.276 5287.62 465.039 5285.55 468.494C5277.95 480.241 5266.88 495.098 5252.37 513.064C5237.85 530.339 5221.6 547.613 5203.63 564.888C5185.66 582.163 5168.03 597.02 5150.75 609.457C5141.76 616.367 5129.32 622.586 5113.42 628.114C5098.21 634.333 5083.69 637.443 5069.86 637.443Z" fill="#C79E56"/>
<path d="M5340.51 636.406C5321.15 636.406 5304.21 631.915 5289.7 622.932C5265.5 608.421 5253.4 582.163 5253.4 544.158C5253.4 528.266 5256.17 509.954 5261.7 489.224C5266.54 471.949 5275.18 453.293 5287.62 433.254C5300.07 412.524 5314.58 392.83 5331.17 374.174C5348.46 355.517 5367.12 340.315 5387.17 328.568C5407.22 316.821 5427.26 310.948 5447.31 310.948C5455.61 310.948 5462.87 311.984 5469.09 314.057C5477.38 316.821 5484.3 322.004 5489.83 329.605C5496.05 336.514 5499.16 345.497 5499.16 356.553C5499.16 368.3 5496.05 374.865 5489.83 376.247C5484.3 377.629 5481.53 376.247 5481.53 372.101C5481.53 370.719 5481.53 369.337 5481.53 367.955C5482.22 366.573 5482.57 365.536 5482.57 364.845C5482.57 359.317 5480.84 354.48 5477.38 350.334C5474.62 345.497 5469.09 343.079 5460.79 343.079C5449.73 343.079 5435.91 348.952 5419.31 360.699C5403.41 372.446 5386.82 388.339 5369.54 408.378C5352.95 427.726 5338.09 449.147 5324.95 472.641C5312.51 496.134 5304.21 519.628 5300.07 543.122C5299.37 546.577 5298.68 550.032 5297.99 553.487C5297.99 556.251 5297.99 559.36 5297.99 562.815C5297.99 578.708 5301.45 592.183 5308.36 603.238C5315.96 613.603 5327.72 618.786 5343.62 618.786C5362.97 618.786 5381.64 611.53 5399.61 597.019C5417.59 581.818 5433.49 563.852 5447.31 543.122C5461.83 522.392 5472.54 504.081 5479.46 488.188C5484.99 475.75 5488.79 465.039 5490.86 456.057C5492.94 447.074 5493.97 439.473 5493.97 433.254C5493.97 427.726 5493.28 422.889 5491.9 418.743C5491.21 414.597 5490.17 411.142 5488.79 408.378C5487.41 404.232 5486.72 401.122 5486.72 399.049C5486.72 393.522 5488.79 389.03 5492.94 385.575C5497.78 382.12 5502.62 380.393 5507.45 380.393C5511.6 380.393 5516.1 381.775 5520.93 384.539C5526.46 385.921 5534.07 386.957 5543.75 387.648C5553.43 388.339 5563.8 388.685 5574.86 388.685C5586.61 388.685 5598.36 388.339 5610.11 387.648C5622.56 386.957 5633.27 385.575 5642.26 383.502C5643.64 382.811 5645.71 382.466 5648.48 382.466C5653.32 382.466 5655.74 383.848 5655.74 386.612C5655.74 389.376 5653.32 391.794 5648.48 393.867C5624.28 404.923 5602.51 410.796 5583.15 411.487C5564.49 412.178 5548.24 412.524 5534.42 412.524C5535.8 429.799 5532 448.456 5523.01 468.494C5514.02 487.842 5504.69 505.117 5495.01 520.319C5483.26 537.594 5469.78 555.214 5454.57 573.18C5439.36 591.146 5422.42 606.348 5403.76 618.786C5385.09 630.533 5364.01 636.406 5340.51 636.406Z" fill="#C79E56"/>
</svg>
