<svg width="500" height="500" viewBox="0 0 500 500" fill="none" xmlns="http://www.w3.org/2000/svg">
<rect width="500" height="500" rx="127" fill="black"/>
<path d="M422.378 102.881C384.929 91.866 345.352 114.311 318.344 138.502C299.331 155.525 284.592 176.062 272.814 198.507C267.182 209.244 260.833 219.982 256.473 231.316C256.056 229.037 255.639 226.746 255.222 224.467C254.923 222.805 253.459 219.14 253.94 217.511C254.549 215.476 257.082 214.56 257.552 211.982C257.991 209.607 257.285 207.199 255.842 205.303C254.57 203.631 254.346 204.078 254.367 202.406C254.389 200.957 255.126 199.167 255.447 197.751C257.531 188.781 259.701 179.812 262.918 171.162C264.018 168.19 265.247 165.261 266.637 162.406C267.043 161.575 270.912 155.013 270.281 154.704C268.764 153.948 262.907 167.082 262.34 168.457C259.551 175.157 257.616 182.155 255.8 189.165C254.838 192.882 253.758 196.589 252.957 200.35C252.476 202.587 252.561 202.31 250.53 202.182C249.195 202.097 247.976 202.214 246.726 202.746C241.531 183.317 237.128 162.385 222.881 147.258C222.411 148.877 225.147 150.955 226.077 152.244C227.456 154.15 228.685 156.174 229.807 158.241C232.265 162.758 234.296 167.53 236.081 172.345C237.962 177.394 239.544 182.539 240.986 187.727C241.681 190.209 242.333 192.701 242.974 195.194C243.498 197.239 245.507 201.383 245.037 203.386C244.823 204.28 243.124 205.559 242.664 206.358C241.66 208.083 241.232 210.075 241.638 212.046C241.841 213.069 242.269 213.995 242.846 214.858C243.199 215.391 244.845 216.68 245.005 217.202C245.133 217.617 243.551 227.385 242.974 231.465C236.861 218.895 231.25 205.995 224.004 194.012C210.879 172.302 196.493 151.53 176.807 135.147C162.549 123.291 146.774 113.469 129.353 106.96C113.022 100.857 93.4103 97.7887 76.4596 103.189C72.4517 104.457 68.711 106.311 65.1627 108.548C61.2082 111.051 59.7333 113.671 62.2236 118.124C64.5749 122.342 69.0958 126.444 72.1311 130.332C76.6841 136.169 80.7988 142.38 84.5609 148.76C88.9429 156.185 93.6027 164.26 95.1204 172.835C96.0502 178.097 95.1311 183.231 94.7677 188.504C94.4043 193.809 94.7677 199.178 95.8471 204.376C97.8351 214.038 102.121 222.762 108.234 230.485C113.856 237.58 121.936 242.65 131.095 243.47C141.751 244.429 151.616 240.221 161.822 238.102C159.407 239.923 155.645 240.893 152.834 242.118C149.959 243.364 147.095 244.6 144.295 245.984C134.302 250.938 124.811 257.5 118.291 266.693C115.673 270.378 113.022 275.108 113.728 279.806C114.465 284.695 119.563 286.826 121.241 291.406C124.672 300.801 120.75 308.397 113.322 314.085C119.499 313.702 125.677 313.808 129.129 319.848C132.474 325.696 130.646 332.471 127.771 338.085C132.773 337.328 137.454 337.84 140.939 341.802C144.038 345.318 145.652 350.111 146.325 354.681C147.223 360.71 146.657 366.953 144.327 372.609C142.125 377.946 138.448 382.537 136.332 387.895C135.563 389.845 132.068 400.966 135.98 399.932C137.978 399.4 140.244 395.831 141.452 394.319C143.204 392.135 144.743 389.781 145.951 387.256C149.564 379.725 150.921 369.882 158.499 365.014C162.581 362.393 167.946 362.063 171.954 365.035C175.952 367.997 177.309 373.056 177.918 377.733C178.143 379.459 178.036 381.813 178.966 383.357C180.227 385.445 182.054 384.401 184.021 383.325C187.366 381.482 189.985 378.532 193.031 376.263C199.304 371.565 204.915 366.963 209.853 360.764C216.864 351.954 222.326 341.802 225.126 330.884C228.45 317.909 225.243 304.881 227.541 291.896C229.775 279.284 238.507 269.59 243.84 258.288C244.022 264.86 244.203 271.433 244.385 278.005C244.684 289.052 244.759 300.919 249.718 311.038C254.645 300.045 254.399 287.71 254.827 275.896C255.051 269.739 255.34 263.593 255.639 257.446C260.962 269.984 270.185 279.965 271.959 293.973C273.605 306.959 268.657 320.924 273.306 333.462C277.57 344.977 285.234 356.62 293.474 365.685C300.816 373.76 309.773 382.058 320.343 385.456C319.926 376.156 324.329 361.381 336.684 363.533C347.596 365.429 349.745 380.002 354.201 388.012C355.569 390.473 357.13 392.827 358.883 395.032C359.706 396.066 362.313 400.113 363.906 399.964C366.92 399.687 364.055 392.486 363.553 391.102C359.994 381.099 353.507 372.46 352.406 361.637C351.797 355.661 352.62 349.461 355.719 344.231C357.108 341.888 358.936 339.715 361.255 338.245C364.226 336.37 366.482 336.753 369.731 337.222C368.01 331.597 367.251 326.655 369.666 321.02C370.799 318.367 372.648 315.47 375.31 314.138C378.409 312.594 381.765 313.989 385.003 314.138C381.722 311.592 379.317 309.515 378.014 305.425C376.881 301.856 376.646 297.776 377.233 294.091C377.928 289.702 380.354 287.891 382.748 284.493C384.896 281.457 384.875 277.27 383.999 273.776C381.989 265.745 374.551 259.247 368.341 254.283C364.9 251.534 361.202 249.169 357.237 247.241C353.101 245.217 348.302 244.301 344.347 242.011C353.004 243.439 361.298 244.845 369.998 242.831C378.11 240.946 385.345 237.207 390.892 230.911C401.997 218.32 405.834 201.703 404.124 185.394C402.136 166.401 413.657 149.474 423.661 134.273C427.412 128.574 433.29 123.983 436.54 118.05C437.341 116.58 438.164 114.481 437.972 112.777C437.747 110.763 436.112 109.805 434.402 108.59C430.79 106.023 426.632 104.159 422.389 102.913L422.378 102.881ZM145.299 381.227C143.867 385.861 141.505 390.111 138.138 393.616C136.183 393.094 144.893 377.967 146.325 376.881C146.24 378.372 145.737 379.81 145.289 381.227H145.299ZM192.731 283.758C201.249 274.607 209.928 266.096 221.011 260.003C222.978 258.927 224.891 257.904 226.953 257.02C229.465 255.944 231.987 254.911 234.563 253.995C235.91 253.516 240.847 251.108 242.087 252.046C243.295 252.962 239.693 255.177 238.667 256.104C236.818 257.755 235.012 259.46 233.206 261.164C227.06 266.991 221.738 273.67 217.505 280.999C215.037 285.27 212.835 289.702 210.729 294.165C208.902 298.043 207.17 302.676 203.676 305.393C195.777 311.539 187.933 302.016 185.955 294.964C183.583 286.506 184.502 277.132 189.055 269.547C193.928 261.43 202.308 255.923 210.997 252.568C215.87 250.693 221.011 249.233 226.184 248.52C229.016 248.126 231.848 248.062 234.691 248.189C236.754 248.285 240.281 247.966 242.012 249.351C241.371 250.597 236.658 250.959 235.3 251.353C232.597 252.141 229.882 253.143 227.317 254.293C222.208 256.573 217.409 259.438 212.92 262.783C208.464 266.096 204.36 269.856 200.501 273.84C196.408 278.08 191.705 282.682 188.766 287.806C190.305 286.687 191.47 285.143 192.742 283.758H192.731ZM161.705 321.808C164.195 316.184 167.295 310.815 170.661 305.67C173.718 301.004 176.988 295.39 181.146 291.609C181.573 294.932 183.999 298.533 183.273 301.686C182.856 303.507 182.129 305.297 181.531 307.086C179.65 312.711 177.715 318.303 175.813 323.917C174.445 327.933 173.055 331.906 171.516 335.858C170.533 338.383 169.838 340.844 167.017 341.866C164.216 342.889 162.239 341.11 160.871 338.852C157.302 332.961 159.118 327.677 161.716 321.808H161.705ZM155.463 323.47C152.332 325.44 148.88 320.466 147.993 318.08C146.101 313.02 148.281 306.256 151.829 302.421C160.337 293.217 170.896 285.739 181.392 278.985C181.082 281.18 180.943 283.396 180.879 285.622C180.793 288.498 179.959 289.297 178.164 291.534C175.225 295.209 172.499 299.055 169.913 302.985C165.638 309.473 162.282 319.187 155.463 323.47ZM174.915 335.219C176.283 329.574 178.036 324.034 179.885 318.538C181.06 315.044 182.022 308.034 185.047 305.574C186.96 304.018 187.43 306.064 189.033 307.353C190.038 308.152 192.282 308.791 193.063 309.686C194.302 311.113 194.292 314.969 194.388 316.769C194.687 322.341 193.479 327.88 192.368 333.313C191.534 337.392 191.085 341.973 188.809 345.563C186.393 349.366 181.712 349.706 177.961 347.459C173.045 344.519 173.782 339.938 174.926 335.209L174.915 335.219ZM188.98 164.462C195.275 167.988 200.32 173.506 205.14 178.757C210.11 184.179 214.759 189.889 219.034 195.865C224.656 203.716 228.77 212.121 233.761 220.291C232.116 214.411 228.311 208.808 225.158 203.62C221.898 198.251 218.339 193.053 214.492 188.078C211.478 184.179 208.293 180.387 204.873 176.829C204.103 176.03 199.229 172.206 199.454 170.97C209.661 178.64 217.655 190.262 224.463 200.882C231.538 211.908 238.197 223.923 241.97 236.525C239.65 234.491 237.748 231.124 235.707 228.728C231.357 223.646 226.868 218.661 221.877 214.198C217.388 210.182 212.397 206.699 207.566 203.109C196.023 194.534 182.589 187.396 172.532 177.17C169.528 174.113 160.412 162.513 168.064 159.604C174.498 157.154 183.518 161.405 188.98 164.462ZM108.811 189.932C106.375 190.486 105.434 186.864 107.775 186.097C110.361 185.245 111.163 189.016 108.811 189.932ZM110.051 209.276C109.549 209.947 107.764 209.99 108.117 208.786C108.491 207.529 109.848 208.637 110.051 209.276ZM92.6515 129.927C91.4117 126.784 90.8667 123.525 90.9522 120.148C95.8578 121.043 100.796 123.983 105.413 125.964C110.372 128.105 115.566 130.449 119.691 133.975C114.839 133.027 110.019 132.505 105.081 132.42C100.817 132.345 96.3815 132.281 92.6515 129.927ZM97.5358 146.917C96.2853 149.293 92.7584 147.439 93.8592 145.043C95.0135 142.518 98.8183 144.467 97.5358 146.917ZM100.218 136.009C102.463 133.751 109.41 134.944 112.231 135.168C116.902 135.53 121.519 136.467 125.783 138.438C129.278 140.057 133.34 141.836 134.697 145.522C135.328 147.248 135.969 148.963 136.599 150.678C130.197 149.389 124.105 148.824 117.597 148.984C114.155 149.069 110.66 149.378 107.443 147.897C103.318 146.012 98.8718 140.899 100.229 136.009H100.218ZM114.583 165.698C112.114 164.323 110.04 161.809 109.1 159.146C108.587 157.719 107.978 155.525 108.117 154.001C108.266 152.308 107.743 153.256 108.683 152.648C109.752 151.956 112.627 152.158 113.909 151.999C116.004 151.743 118.003 151.626 120.13 151.7C123.763 151.839 127.376 152.084 130.956 152.755C133.414 153.213 137.786 153.746 139.453 155.418C140.458 156.419 141.11 158.369 141.954 159.572C142.948 160.968 144.027 162.299 145.171 163.578C147.586 166.305 150.226 168.808 152.781 171.397C147.875 170.193 143.012 169 137.989 168.382C130.155 167.413 121.786 169.692 114.604 165.698H114.583ZM115.213 168.35C114.54 169.682 112.178 170.065 112.274 168.062C112.37 166.081 115.053 166.539 115.213 168.35ZM108.288 180.046C111.441 179.322 111.686 184.382 108.811 184.424C106.214 184.456 106.546 181.133 108.288 180.046ZM107.219 166.305C107.593 164.046 111.248 164.036 111.259 166.411C111.27 168.712 106.813 168.819 107.219 166.305ZM110.842 178.289C108.811 179.045 107.775 175.913 109.848 175.349C111.975 174.763 112.103 177.245 110.842 178.289ZM100.475 148.963C100.785 146.609 104.803 148.174 103.35 150.273C102.356 151.7 100.25 150.646 100.475 148.963ZM100.603 173.602C101.619 174.592 101.138 176.584 99.4703 176.222C97.3969 175.775 98.5404 173.048 100.603 173.602ZM98.4122 191.54C99.8337 191.167 101.063 193.202 99.6199 194.001C97.9633 194.917 97.3755 192.552 98.4122 191.54ZM99.9192 185.202C97.6427 184.329 98.9252 181.229 101.031 181.431C103.938 181.708 102.441 186.15 99.9192 185.202ZM102.474 191.348C104.141 191.082 104.878 193.49 103.147 193.873C101.33 194.278 101.298 192.147 102.474 191.348ZM104.162 158.358C102.741 155.983 106.845 154.065 107.828 156.728C108.694 159.072 105.359 160.361 104.162 158.358ZM104.611 161.373C105.669 158.933 109.709 159.881 109.196 162.63C108.598 165.847 103.307 164.377 104.611 161.373ZM110.158 192.605C110.553 191.029 112.755 190.475 113.375 192.201C114.38 194.96 109.506 195.151 110.158 192.605ZM114.251 198.368C115.801 198.113 117.158 199.913 115.63 201.021C113.888 202.288 112.381 199.625 114.251 198.368ZM111.099 202.555C112.263 200.509 115.716 201.841 115.256 204.11C114.604 207.295 109.581 205.218 111.099 202.555ZM113.963 209.085C114.572 206.56 118.719 208.456 116.902 210.555C115.812 211.812 113.546 210.842 113.963 209.085ZM116.229 217.266C117.842 217.436 117.522 219.162 116.068 219.407C114.187 219.726 115.352 217.67 116.229 217.266ZM116.795 214.571C114.85 212.877 117.682 210.235 119.371 212.142C120.814 213.782 118.494 216.051 116.795 214.571ZM117.415 197.399C116.571 196.675 116.496 194.853 118.003 195.269C119.499 195.673 118.612 197.42 117.415 197.399ZM116.421 192.968C111.066 189.921 111.729 180.387 114.818 176.062C119.275 169.831 129.652 170.47 136.364 171.13C152.727 172.749 168.331 181.367 181.541 190.72C175.129 189.186 168.791 187.482 162.261 186.587C153.967 185.447 145.663 185.202 137.39 186.736C133.66 187.428 129.888 188.398 126.446 190.006C123.454 191.402 119.895 194.938 116.421 192.968ZM158.146 126.263C160.102 125.911 161.78 128.585 159.653 129.618C157.59 130.609 156.243 127.562 158.146 126.263ZM149.157 121C151.167 120.255 153.379 122.918 151.124 124.121C149.222 125.133 147.212 122.438 149.157 121ZM147.33 127.946C154.223 128.073 161.683 134.944 166.931 138.854C173.387 143.668 179.489 148.952 185.218 154.608C180.301 153.33 175.503 151.125 170.341 151.061C167.091 151.019 164.206 151.53 161.801 153.927C159.065 156.654 158.317 160.606 159.022 164.313C159.364 166.102 160.027 167.817 160.786 169.468C161.502 171.024 162.71 172.675 163.126 174.315C162.175 174.678 160.7 173.069 159.909 172.59C158.787 171.908 157.75 171.056 156.756 170.214C154.565 168.361 152.578 166.283 150.493 164.323C146.144 160.233 142.617 156.505 140.073 150.997C137.786 146.055 134.836 140.153 136.717 134.625C138.245 130.129 142.798 127.978 147.33 127.935V127.946ZM144.562 124.814C140.992 125.783 137.615 127.541 135.541 130.694C134.654 132.047 134.088 133.559 133.724 135.136C133.457 136.318 133.853 138.641 133.147 139.599C131.576 138.417 130.689 138.129 130.379 136.286C129.93 133.709 130.849 130.268 132.089 128.063C133.243 126.028 134.943 124.611 137.048 123.653C140.169 122.236 141.815 122.95 144.551 124.803L144.562 124.814ZM135.627 113.789C137.177 113.352 138.855 115.003 137.454 116.345C135.937 117.783 133.243 115.152 135.627 113.789ZM125.399 109.506C127.301 109.059 128.573 111.999 126.489 112.606C124.533 113.171 123.71 110.529 125.399 109.506ZM101.266 105.512C102.783 103.743 105.53 105.661 103.809 107.163C102.591 108.217 100.999 106.96 101.266 105.512ZM87.2435 105.416C88.2268 104.383 90.717 104.553 90.1399 106.428C89.5414 108.377 87.0725 107.067 87.2435 105.416ZM71.0837 117.623C69.908 118.103 68.9675 116.537 70.1646 115.93C71.5219 115.237 71.9494 116.729 71.0837 117.623ZM71.8425 112.936C69.2775 112.681 66.6804 112.819 64.1367 112.542C71.7463 111.179 79.6873 110.934 87.4038 110.923C95.3876 110.923 103.703 110.912 111.59 112.244C117.062 113.171 122.534 114.449 127.739 116.377C129.866 117.165 131.993 117.964 134.077 118.838C134.975 119.221 137.241 119.775 137.775 120.713C134.868 122.097 130.871 124.824 129.428 127.818C128.348 130.055 128.445 133.538 128.498 135.967C110.853 124.729 93.1431 115.014 71.8425 112.936ZM87.842 121.139C87.8848 121.362 87.842 121.597 87.7138 121.842C87.0298 123.109 84.8709 122.183 85.3411 120.787C85.79 119.466 87.6497 120.084 87.842 121.139ZM78.8857 118.444C78.8216 118.582 78.7254 118.731 78.5972 118.88C77.6246 120.042 76.0107 119.275 75.8611 117.943C75.5298 115.078 79.8262 116.452 78.8857 118.444ZM77.336 124.792C76.0642 125.293 75.0061 123.621 76.2993 122.95C77.7528 122.193 78.3513 123.823 77.336 124.792ZM80.1896 125.879C79.3987 127.36 77.336 126.305 77.9773 124.803C78.672 123.205 81.1302 124.121 80.1896 125.879ZM81.8355 118.678C80.211 119.477 79.6339 117.048 80.9271 116.686C82.3913 116.281 82.573 117.762 81.8355 118.678ZM85.0419 128.212C83.5563 126.454 86.7091 124.271 88.0237 126.167C89.2528 127.935 86.4099 129.831 85.0419 128.212ZM90.172 135.147C89.0497 135.477 87.6924 135.519 86.7412 134.902C85.5976 134.156 85.5121 132.846 86.4313 131.855C87.2328 130.992 88.3871 131.013 89.4238 131.386C90.375 131.717 92.6408 132.91 91.7537 134.23C91.54 134.539 91.198 134.742 90.856 134.902C90.6422 134.997 90.4178 135.083 90.172 135.157V135.147ZM92.7049 139.131C91.0056 136.467 95.2914 133.922 96.6915 136.787C97.8885 139.248 94.244 141.549 92.7049 139.131ZM95.0349 156.728C92.6622 156.228 93.2073 152.414 95.7189 153.053C97.9954 153.639 96.7983 156.419 95.0349 156.728ZM96.0288 163.471C95.2914 160.904 99.0855 159.2 100.218 161.799C101.469 164.675 96.9052 166.518 96.0288 163.471ZM97.3648 200.254C97.1297 198.549 97.6854 196.664 99.0107 195.577C100.518 194.342 102.783 194.214 104.397 195.364C106.075 196.568 106.684 198.922 107.208 200.797C107.572 202.129 106.204 203.78 105.167 204.451C102.548 206.134 97.7496 203.109 97.3648 200.254ZM99.2672 209.671C98.9893 208.786 99.684 207.764 100.625 208.691C101.501 209.553 100.176 210.64 99.2672 209.671ZM102.164 215.817C101.063 216.19 99.994 214.869 100.667 213.857C101.704 212.291 103.51 214.443 102.164 215.817ZM102.463 210.725C100.967 209.979 101.651 207.753 103.275 207.987C105.434 208.286 104.536 211.758 102.463 210.725ZM103.831 217.756C104.654 215.753 107.401 216.445 106.791 218.533C106.182 220.579 103.97 219.471 103.831 217.756ZM106.663 223.998C104.868 224.232 104.333 221.686 106.054 221.367C107.721 221.058 107.668 223.295 106.663 223.998ZM109.795 220.855C107.946 221.282 106.546 219.045 108.266 217.894C110.243 216.563 111.729 219.46 109.795 220.855ZM117.03 236.014C115.203 236.323 114.316 233.67 116.175 233.383C117.81 233.127 117.971 235.108 117.03 236.014ZM119.317 231.284C118.644 231.913 117.661 232.243 116.656 232.381C112.402 232.946 108.031 229.356 111.505 225.138C113.108 223.188 117.575 223.061 118.933 225.361C119.606 226.512 120.215 227.939 120.183 229.303C120.162 230.166 119.83 230.815 119.317 231.295V231.284ZM120.055 223.582C118.633 222.571 120.247 220.493 121.615 221.463C123.026 222.464 121.476 224.605 120.055 223.582ZM122.502 238.443C121.166 238.475 120.269 236.93 121.722 236.184C123.347 235.353 124.266 237.601 122.502 238.443ZM125.73 218.416C125.185 220.536 121.743 220.099 121.872 217.862C122.011 215.423 126.403 215.806 125.73 218.416ZM128.584 234.799C126.628 235.353 125.666 232.85 127.558 232.413C129.15 232.051 129.631 233.83 128.584 234.799ZM128.755 230.656C126.927 231.369 125.281 229.132 126.948 227.854C128.808 226.427 130.903 229.196 128.755 230.656ZM127.461 218.821C127.632 217.212 129.888 217.404 129.524 218.821C129.214 220.014 127.921 219.662 127.461 218.821ZM118.644 206.912C117.319 202.203 118.943 196.994 123.218 194.47C131.394 189.655 142.221 188.6 151.53 188.845C158.103 189.026 164.591 189.506 171.057 190.763C182.428 192.978 192.037 197.964 201.602 204.334C212.097 211.322 223.822 219.641 231.731 229.558C218.66 221.079 205.086 213.399 190.006 209.01C177.651 205.41 165.275 205.346 152.759 208.243C146.678 209.649 141.142 211.908 135.445 214.368C132.335 215.71 128.787 214.635 125.922 213.186C123.379 211.897 119.467 209.852 118.633 206.912H118.644ZM133.767 237.143C133.457 238.357 131.736 238.421 131.448 237.143C131.074 235.439 134.28 235.162 133.767 237.143ZM133.447 234.863C132.025 235.279 131.042 233.148 132.41 232.669C133.895 232.147 134.334 233.969 133.447 234.863ZM138.929 237.835C137.444 238.485 136.343 236.067 137.722 235.385C139.41 234.554 139.859 236.834 138.929 237.835ZM142.446 239.273C141.516 239.188 140.661 238.059 141.911 237.526C143.098 237.026 143.482 238.592 142.446 239.273ZM145.812 239.486C144.337 239.71 143.322 237.942 144.84 237.143C146.507 236.259 147.223 238.453 145.812 239.486ZM159.973 231.923C154.758 233.351 149.211 236.099 143.717 234.725C139.261 233.606 131.501 230.208 131.127 224.797C130.593 217.234 145.812 213.559 151.049 212.003C170.105 206.336 188.873 208.541 206.754 217.106C213.123 220.152 219.194 223.796 225.03 227.769C230.555 231.529 236.733 235.375 241.147 240.456C229.262 235.929 217.014 232.424 204.531 229.878C189.621 226.831 174.605 227.939 159.973 231.934V231.923ZM135.05 256.051C135.338 254.144 138.288 253.718 138.042 256.051C137.828 258.022 134.729 258.213 135.05 256.051ZM134.954 269.26C136.642 265.031 138.919 261.026 141.612 257.35C145.118 252.568 149.489 248.264 154.608 245.122C160.294 241.638 166.771 239.934 173.248 238.602C176.315 237.974 179.414 237.473 182.514 237.047C201.506 234.427 220.37 238.751 238.667 243.47C239.437 243.673 243.038 244.099 241.66 245.59C241.254 246.027 235.92 244.45 234.969 244.312C230.961 243.726 227.114 243.801 223.149 244.461C221.203 244.791 219.194 245.015 217.27 245.452C213.604 246.293 209.5 247.849 206.337 249.478C204.103 250.629 201.901 251.715 199.742 253.026C196.237 255.156 193.351 258.128 189.878 260.237C186.842 262.08 183.604 263.699 180.505 265.436C167.775 272.562 154.277 278.57 142.756 287.635C141.633 288.519 140.607 289.531 139.506 290.437C138.256 291.47 137.957 290.969 137.508 289.68C136.589 287.017 133.981 285.377 133.051 282.703C132.217 280.285 132.388 277.622 133.019 275.172C133.532 273.159 134.184 271.188 134.954 269.26ZM134.622 292.194C133.938 291.683 133.992 290.373 135.007 290.479C136.204 290.607 135.424 292.045 134.622 292.194ZM133.927 300.674C132.41 301.931 130.785 295.901 133.265 295.731C135.584 295.571 134.708 299.747 133.927 300.674ZM129.652 261.43C130.55 258.437 135.328 260.141 133.97 262.996C132.784 265.51 128.84 264.125 129.652 261.43ZM129.855 285.473C130.839 285.483 131.94 287.156 130.518 287.497C129.246 287.806 128.862 286.154 129.855 285.473ZM127.782 292.035C125.837 292.514 124.918 289.84 126.521 288.818C128.594 287.497 130.347 291.012 127.782 292.035ZM128.252 299.108C127.729 300.77 125.356 300.333 126.136 298.65C126.681 297.478 128.765 297.499 128.252 299.108ZM128.894 276.525C129.353 277.196 129.193 277.899 128.755 278.602C127.729 278.144 127.942 276.727 128.894 276.525ZM125.26 268.237C125.837 266.149 128.701 266.81 128.445 268.844C128.135 271.348 124.576 270.709 125.26 268.237ZM121.241 273.393C122.128 271.657 124.832 272.349 124.17 274.266C123.464 276.29 121.348 274.906 121.241 273.393ZM122.353 282.479C121.295 280.754 123.71 278.687 124.993 280.679C126.2 282.543 123.528 284.386 122.353 282.479ZM125.837 312.168C124.276 312.711 122.876 310.666 124.447 309.824C126.072 308.961 127.045 311.07 125.837 312.168ZM129.342 308.397C126.585 308.951 125.441 304.445 128.637 303.933C131.704 303.443 131.822 307.449 129.342 308.397ZM132.966 317.952C129.524 317.803 129.684 312.349 132.998 312.05C136.824 311.709 137.07 318.122 132.966 317.952ZM135.467 331.065C134.227 331.374 133.596 329.989 134.633 329.147C135.894 328.125 136.792 330.095 135.467 331.065ZM138.064 325.227C137.711 327.379 134.473 326.474 134.9 324.45C135.328 322.426 138.416 323.108 138.064 325.227ZM137.946 308.876C134.847 308.865 134.473 303.635 135.36 301.643C137.444 303.752 139.026 305.691 137.946 308.876ZM138.245 300.897C134.12 293.845 148.463 286.218 153.123 283.374C158.189 280.274 163.458 277.878 168.823 275.374C171.484 274.128 174.049 272.711 176.646 271.348C178.923 270.155 183.176 266.735 185.742 266.884C184.716 268.631 184.106 270.666 183.07 272.36C182.065 273.989 180.312 275.119 178.837 276.29C177.704 277.196 176.571 278.101 175.428 278.996C172.275 281.489 169.133 283.992 165.969 286.463C163.18 288.647 160.294 290.714 157.686 293.121C154.416 296.146 151.573 299.576 148.356 302.644C146.785 304.146 145.887 304.263 143.728 303.923C141.473 303.571 139.496 303.038 138.245 300.908V300.897ZM139.966 306.181C141.388 306.873 142.862 307.204 144.434 307.289C144.198 308.226 144.102 310.431 143.354 311.07C140.65 313.382 140.009 307.672 139.966 306.181ZM144.701 334.207C144.027 336.466 140.415 336.444 140.233 333.898C139.977 330.362 145.695 330.862 144.701 334.207ZM150.066 355.235C149.125 355.8 148.741 354.724 149.403 354.063C150.066 353.392 150.974 354.425 150.066 355.235ZM151.006 340.023C149.799 342.953 145.256 340.343 147.191 337.786C148.805 335.656 152.097 337.382 151.006 340.023ZM150.654 329.765C143.087 327.55 141.954 318.751 143.985 312.359C144.412 316.908 145.652 321.414 148.58 325.068C149.863 326.665 152.022 326.271 153.197 327.55C154.94 329.446 152.385 330.287 150.654 329.776V329.765ZM153.005 362.82C152.182 362.841 151.487 362.085 152.214 361.318C153.315 360.156 154.127 361.701 153.005 362.82ZM156.254 351.326C155.164 354.117 150.6 352.039 152.3 349.291C153.7 347.022 157.205 348.897 156.254 351.326ZM159.257 358.463C157.248 359.198 155.656 356.279 157.815 355.416C159.984 354.543 161.01 357.28 159.257 358.463ZM164.986 352.508C163.907 352.668 162.859 351.177 164.11 350.559C165.424 349.909 166.001 351.698 164.986 352.508ZM170.64 357.824C169.849 360.54 165.456 359.645 166.065 356.833C166.653 354.085 171.441 355.075 170.64 357.824ZM177.245 363.278C176.048 363.427 174.851 361.946 176.133 361.211C177.512 360.423 178.196 362.308 177.245 363.278ZM181.157 359.805C179.692 361.669 176.625 360.029 177.662 357.802C178.848 355.278 181.637 357.557 181.157 359.805ZM184.106 368.092C182.76 368.369 181.424 366.654 182.824 365.77C184.491 364.726 185.485 366.857 184.106 368.092ZM186.34 361.467C185.335 361.563 184.769 360.774 185.271 359.805C185.838 358.708 187.024 360.401 186.34 361.467ZM191.128 371.746C189.097 372.598 187.9 369.19 189.91 368.487C192.272 367.666 192.56 370.596 191.128 371.746ZM191.983 363.203C190.562 361.808 189.514 360.124 188.713 358.314C188.264 357.302 187.74 354.234 186.928 353.829C186.201 353.467 184.534 353.989 183.7 353.967C181.873 353.914 180.077 353.488 178.367 352.86C176.465 352.157 174.626 351.187 173.034 349.92C171.602 348.78 170.127 346.042 168.556 345.808C166.792 345.541 164.623 347.235 162.677 347.129C160.935 347.033 159.407 346.213 158.199 344.977C155.805 342.516 154.501 338.596 154.138 335.262C154.052 334.506 153.689 331.544 154.918 331.257C155.976 331.001 155.795 333.664 155.859 334.079C156.906 340.716 164.623 349.366 171.014 342.75C173.857 349.728 182.482 355.107 189.236 349.376C189.311 352.423 189.301 355.959 190.882 358.676C192.379 361.243 194.356 360.87 191.972 363.203H191.983ZM198.77 365.76C197.177 365.792 195.713 363.704 197.648 362.841C199.561 361.978 200.523 364.748 198.77 365.76ZM216.736 342.292C214.801 342.932 213.123 340.524 215.133 339.448C217.142 338.383 217.88 341.014 216.736 342.292ZM217.249 311.241C217.292 322.628 215.176 334.569 211.029 345.19C209.244 349.749 206.583 355.97 202.211 358.686C197.135 361.84 193.063 358.591 192.368 353.243C190.872 341.696 196.034 329.978 197.359 318.612C197.551 316.961 197.584 312.636 198.952 311.464C199.871 310.676 202.254 310.666 203.558 309.931C206.946 308.024 209.105 304.402 210.794 301.036C213.23 296.189 215.047 291.065 217.548 286.24C220.135 281.254 223.875 274.117 228.514 270.911C227.039 273.958 224.249 276.333 222.518 279.273C220.722 282.33 219.301 285.643 218.318 289.052C216.212 296.349 217.217 303.774 217.249 311.241ZM241.04 259.066C234.424 270.229 226.098 280.104 224.228 293.419C223.32 299.928 224.004 306.458 224.036 312.988C224.046 316.258 223.854 319.518 223.405 322.767C223.106 324.961 223.031 329.701 221.428 331.416C220.316 327.07 220.541 322.351 220.413 317.899C220.252 312.498 219.675 307.108 219.557 301.707C219.354 292.45 221.684 283.811 227.103 276.216C229.134 273.361 231.41 270.677 233.323 267.747C235.707 264.083 238.934 256.669 243.135 255.273C242.59 256.615 241.788 257.83 241.05 259.076L241.04 259.066ZM249.975 304.913C249.879 305.116 249.718 305.233 249.483 305.254C249.184 304.807 249.013 304.317 248.97 303.784C249.857 303.678 250.445 304.008 249.975 304.903V304.913ZM250.53 302.421C249.013 303.71 248.489 302.208 248.404 300.865C250.156 300.642 251.129 300.493 250.53 302.421ZM251.044 299.502C250.659 299.949 248.917 300.365 248.361 299.896C246.897 298.65 248.34 298.373 249.066 298.149C250.285 297.776 251.824 297.904 251.044 299.502ZM251.386 296.967C249.376 297.776 247.634 297.563 247.549 295.411C249.152 295.454 252.23 294.666 251.386 296.967ZM251.899 293.142C251.396 296.2 245.7 294.005 247.591 292.525C248.329 291.949 251.834 292.258 251.899 293.142ZM251.931 290.927C249.59 292.674 247.11 291.768 246.726 289.254C248.446 289.222 250.456 288.903 252.144 289.137C252.176 289.744 252.102 290.341 251.92 290.927H251.931ZM252.337 286.911C252.091 288.296 249.921 288.328 248.799 288.274C246.694 288.168 246.758 287.72 246.405 285.505C248.254 285.878 252.796 284.344 252.347 286.911H252.337ZM252.123 283.971C249.601 284.844 246.491 285.611 246.352 282.16C247.581 281.926 254.474 281.489 252.123 283.971ZM252.668 280.669C251.503 280.945 244.588 282.085 246.17 279.017C246.651 278.08 251.311 278.645 252.711 278.474C252.7 279.209 252.679 279.934 252.668 280.669ZM252.711 277.175C251.343 277.931 245.39 278.463 246.01 275.918C246.298 274.756 246.897 275.374 248.297 275.449C249.248 275.502 250.466 275.151 251.375 275.342C252.914 275.673 252.85 275.183 252.721 277.175H252.711ZM252.818 274.053C251.546 274.256 247.634 274.938 246.458 274.096C245.657 273.531 245.903 272.732 245.871 271.752C246.961 271.923 251.877 271.167 252.412 271.603C253.074 272.147 252.828 273.031 252.818 274.043V274.053ZM252.903 270.272C251.717 271.092 248.66 271.156 247.271 270.794C245.454 270.325 245.849 270.527 245.785 268.322C247.869 268.663 253.694 267.044 252.903 270.272ZM252.914 267.417C251.418 267.843 246.116 268.28 245.796 266.575C245.443 264.637 247.591 265.191 248.927 265.223C251.311 265.276 253.192 264.583 252.914 267.417ZM253.063 263.263C252.615 264.765 253.47 263.966 251.717 264.338C250.905 264.509 249.622 264.317 248.788 264.317C245.112 264.306 245.807 264.253 245.796 260.642C245.785 257.809 245.817 254.964 245.764 252.12C245.646 246.261 245.39 240.658 246.416 234.853C246.758 232.893 248.404 220.76 251.375 226.086C253.138 229.25 253.245 233.841 253.566 237.377C254.1 243.183 253.78 260.844 253.063 263.263ZM353.4 375.155C356.948 380.012 359.406 386.755 360.368 392.614C355.965 387.757 353.068 381.802 353.4 375.155ZM408.164 105.608C408.997 104.116 412.118 104.936 410.975 106.737C410.034 108.196 407.266 107.227 408.164 105.608ZM396.322 105.213C397.925 105.064 399.442 106.865 397.476 107.749C395.574 108.601 394.697 106.279 396.322 105.213ZM385.591 107.163C386.607 107.216 387.953 108.047 386.5 108.931C385.367 109.613 383.774 108.026 385.591 107.163ZM373.343 109.89C375.149 109.485 376.613 111.53 374.519 112.329C372.616 113.054 371.922 111.019 373.343 109.89ZM360.005 115.663C360.924 114.321 363.895 114.108 363.168 116.303C362.613 117.986 359.727 117.485 360.005 115.663ZM356.788 126.028C360.336 125.581 365.445 126.231 367.7 129.362C368.769 130.843 369.089 132.792 368.673 134.55C368.512 135.211 367.069 138.886 366.257 138.832C366.289 138.832 364.59 132.899 364.066 132.089C361.875 128.681 358.049 127.498 354.287 126.646C355.121 126.444 355.954 126.231 356.777 126.028H356.788ZM376.667 214.347C377.704 211.769 381.562 213.963 379.873 216.147C378.655 217.724 375.887 216.286 376.667 214.347ZM375.01 212.824C369.175 215.977 363.243 212.738 357.611 210.832C354.864 209.894 352.074 209.031 349.296 208.19C336.973 204.43 323.132 204.557 310.745 207.87C294.938 212.11 281.429 220.941 267.577 229.239C274.407 222.752 280.98 215.785 288.194 209.724C293.003 205.687 298.476 202.288 303.958 199.284C309.805 196.078 316.303 194.374 322.523 192.062C334.301 187.695 347.083 188.547 359.225 190.997C365.081 192.179 372.883 193.01 376.913 197.868C380.803 202.555 381.028 209.564 375 212.824H375.01ZM379.114 193.191C376.282 193.053 372.52 191.167 369.731 190.4C364.878 189.058 359.919 188.089 354.928 187.428C342.146 185.724 329.962 186.363 317.788 190.72C330.624 182.187 344.23 170.459 360.496 170.267C366.845 170.193 375.876 169.82 380.728 174.401C383.4 176.925 385.773 181.389 386.254 185.085C386.756 188.909 383.133 193.394 379.093 193.202L379.114 193.191ZM387.91 175.37C390.518 175.199 391.982 178.491 389.054 179.386C386.318 180.217 384.736 176.126 387.91 175.37ZM387.397 168.552C388.466 167.221 391.715 166.411 391.298 169.138C390.914 171.631 387.205 171.12 387.397 168.552ZM386.393 199.327C385.388 202.075 381.049 200.392 382.342 197.74C383.496 195.375 387.376 196.643 386.393 199.327ZM381.145 210.874C381.957 208.243 386.232 208.967 385.709 211.854C385.132 215.05 380.119 214.187 381.145 210.874ZM385.292 218.437C387.087 217.947 387.836 220.674 386.04 220.983C384.191 221.303 384.298 219.29 385.292 218.437ZM385.89 207.519C382.545 207.966 381.38 202.96 384.864 202.374C388.049 201.841 388.562 206.411 385.89 207.519ZM389.182 218.395C387.226 219.013 386.596 216.232 388.327 215.849C390.101 215.455 390.272 217.436 389.182 218.395ZM389.898 221.559C389.492 223.476 386.692 222.581 387.376 220.834C387.942 219.396 390.251 219.897 389.898 221.559ZM389.343 192.414C386.692 191.657 387.825 187.695 390.54 188.472C393.137 189.218 392.207 193.234 389.343 192.414ZM390.86 185.5C387.633 186.107 386.745 180.93 390.123 180.92C392.816 180.909 393.126 184.51 390.86 185.5ZM388.306 167.306C381.637 170.022 375.694 168.712 368.844 167.849C361.052 166.869 353.432 167.594 345.94 170.012C350.45 166.497 354.105 162.64 357.621 158.198C361.565 153.234 367.08 151.477 373.311 151.051C377.928 150.731 382.973 150.752 387.397 152.158C390.7 153.213 393.938 155.28 394.879 158.816C396.129 163.514 392.025 165.793 388.295 167.306H388.306ZM395.274 154.427C397.508 153.969 398.042 157.335 395.809 157.378C394.109 157.41 393.714 155.045 395.274 154.427ZM395.061 148.483C395.317 146.342 398.63 146.694 398.416 148.771C398.192 150.955 394.804 150.646 395.061 148.483ZM397.198 166.539C396.461 168.393 393.532 167.998 394.216 165.921C394.804 164.164 397.177 164.835 397.198 166.539ZM394.911 172.643C396.311 172.377 397.08 174.401 395.734 175.029C394.109 175.785 393.222 173.57 394.911 172.643ZM396.076 182.486C397.006 180.11 401.227 181.857 400.201 184.243C399.143 186.704 395.093 185.01 396.076 182.486ZM399.261 176.393C398.128 175.253 399.133 173.261 400.714 174.092C402.467 175.018 400.8 176.904 399.261 176.393ZM390.946 132.718C386.799 132.899 382.641 133.591 378.527 134.081C384.17 130.257 390.443 126.848 396.653 124.068C398.94 123.046 403.183 120.553 405.738 120.777C408.367 121.011 407.17 125.559 406.742 127.488C405.171 134.614 396.621 132.473 390.956 132.718H390.946ZM388.883 136.191C391.085 135.967 396.835 134.955 398.267 137.043C400.094 139.716 394.676 147.024 392.442 148.387C389.439 150.22 383.603 148.079 380.237 148.004C373.835 147.855 367.497 148.558 361.587 151.093C362.901 148.973 363.436 146.268 365.092 144.35C366.514 142.699 368.844 141.708 370.714 140.686C376.336 137.607 382.567 136.649 388.894 136.191H388.883ZM349.082 120.414C350.835 120.01 351.882 122.289 350.087 123.046C348.12 123.866 347.522 121.437 349.082 120.414ZM339.153 127.669C339.997 126.113 342.915 126.124 342.167 128.212C341.601 129.799 339.089 129.373 339.153 127.669ZM337.999 135.264C343.717 131.418 349.146 127.53 356.382 129.607C363.82 131.748 363.906 138.779 361.416 144.947C356.67 156.718 347.735 166.891 336.823 173.357C339.516 166.869 342.178 156.941 334.718 152.499C327.535 148.217 319.733 152.265 312.947 154.981C320.685 147.684 329.181 141.208 338.009 135.264H337.999ZM262.522 223.753C271.906 206.006 280.98 189.111 295.28 175.018C302.825 167.583 311.91 161.117 322.138 157.975C323.292 157.623 324.479 157.304 325.697 157.335C327.343 157.378 328.861 158.337 330.079 159.381C330.924 160.105 331.586 161 331.992 162.033C332.826 164.132 332.495 166.486 331.821 168.574C330.314 173.218 327.044 177.522 323.453 180.781C323.271 180.941 323.1 181.101 322.918 181.261C317.243 186.107 310.649 190.241 304.557 194.587C294.746 201.585 284.389 207.284 275.615 215.689C268.935 222.091 263.035 228.994 257.627 236.461C258.76 232.051 260.609 227.865 262.533 223.753H262.522ZM360.443 290.82C360.87 291.598 361.041 294.9 361.127 295.795C361.373 298.17 361.041 300.386 359.331 302.186C358.359 303.209 355.067 305.808 353.485 305.638C351.861 305.457 350.055 302.73 348.804 301.419C346.944 299.47 345.106 297.499 343.193 295.614C337.518 290.011 331.533 285.089 325.067 280.466C322.384 278.549 319.445 276.78 316.923 274.693C315.148 273.212 314.561 271.177 313.428 269.164C311.921 266.512 309.869 264.189 307.977 261.803C314.732 265.808 321.369 270.155 328.337 273.776C333.371 276.386 338.394 278.996 343.428 281.606C344.775 282.309 346.132 282.991 347.479 283.704C350.813 285.462 359.706 289.521 360.432 290.831L360.443 290.82ZM362.121 293.845C364.066 291.417 366.653 299.768 366.653 301.1C366.663 305.222 361.929 309.441 358.263 310.804C357.012 311.273 356.82 311.624 355.933 310.186C354.843 308.429 355.623 307.8 356.905 306.98C362.324 303.518 363.703 300.237 362.121 293.835V293.845ZM338.619 333.472C337.764 338.564 336.898 342.921 332.195 343.102C330.4 343.177 330.507 342.804 329.566 341.067C329.032 340.087 328.551 339.097 328.07 338.085C327.022 335.869 326.071 333.611 325.141 331.352C323.41 327.177 321.828 322.937 320.172 318.729C319.071 315.928 318.077 313.084 317.136 310.229C316.41 308.013 315.448 305.723 314.956 303.443C314.721 302.378 314.571 302.772 314.71 301.803C314.828 300.983 315.768 299.939 316.142 299.129C317.158 296.935 317.863 294.602 318.462 292.269C323.656 297.35 327.632 304.562 331.479 310.783C332.772 312.881 334.044 314.99 335.145 317.195C336.032 318.964 339.516 323.129 339.345 325.376C339.281 326.186 339.345 330.937 338.619 333.472ZM337.828 316.759C334.472 311.475 331.116 306.181 327.76 300.897C326.242 298.511 324.757 296.157 323.057 293.899C321.572 291.928 319.049 289.957 318.804 287.497C318.451 284.035 318.226 280.892 317.233 277.473C324.97 283.364 332.954 289.02 339.987 295.763C343.161 298.809 346.271 301.952 349.328 305.105C352.064 307.939 352.513 311.667 352.299 315.534C352.107 319.113 350.984 322.245 347.404 323.416C345.715 323.97 342.872 324.311 341.665 323.203C340.222 321.883 338.843 318.452 337.838 316.769L337.828 316.759ZM314.988 286.719C315.052 296.413 308.233 310.048 296.498 306.202C292.341 304.839 289.947 301.249 288.28 297.435C285.875 291.939 284.272 286.218 281.365 280.924C276.438 271.976 269.971 264.647 262.64 257.649C261.208 256.275 259.305 254.879 258.076 253.409C256.43 251.449 259.209 251.992 260.887 252.461C266.53 254.027 272.312 256.722 277.474 259.438C284.015 262.879 290.128 267.108 295.718 271.923C298.39 274.224 300.955 276.663 303.338 279.262C305.636 281.776 307.485 285.121 310.072 287.326C305.636 278.506 297.14 271.145 289.519 265.041C279.826 257.297 269.031 252.482 257.039 249.425C268.614 244.546 284.603 249.755 294.81 255.476C305.861 261.675 314.924 273.638 315.009 286.708L314.988 286.719ZM278.714 312.104C278.372 318.058 277.549 324.343 277.944 330.298C274.514 325.504 274.653 317.685 274.898 311.944C275.219 304.796 275.807 297.68 274.418 290.597C273.124 284.003 270.367 277.75 266.979 271.976C263.527 266.096 258.995 260.813 256.43 254.453C258.899 257.159 261.122 259.843 263.089 262.954C266.209 267.896 269.768 272.541 272.889 277.462C279.911 288.519 279.708 299.513 278.703 312.114L278.714 312.104ZM283.791 341.089C283.117 343.454 279.719 342.282 280.403 340.034C281.044 337.914 284.475 338.713 283.791 341.089ZM295.237 356.982C289.669 351.89 286.815 343.901 284.956 336.796C282.914 329.052 281.258 320.785 281.45 312.753C281.653 304.445 282.882 296.402 280.424 288.274C278.436 281.691 274.225 277.121 271.083 271.241C274.877 274 277.848 279.987 279.858 284.077C281.942 288.317 283.139 292.865 284.87 297.244C286.612 301.664 289.006 306.042 293.271 308.482C295.601 309.813 301.137 310.506 301.543 310.516C301.564 311.465 301.575 312.423 301.586 313.371C301.607 314.799 301.607 316.237 301.693 317.664C302.024 323.31 303.093 328.924 304.332 334.442C305.006 337.435 305.743 340.418 306.491 343.4C306.94 345.211 308.533 348.663 308.266 350.569C307.977 352.625 303.574 358.761 302.099 359.304C299.373 360.306 297.161 358.718 295.259 356.982H295.237ZM300.592 364.535C300.154 366.569 296.733 366.218 297.182 364.002C297.599 361.903 301.094 362.266 300.592 364.535ZM307.827 372.183C305.957 372.758 304.728 370.415 306.406 369.317C308.308 368.071 309.74 370.937 307.827 372.183ZM310.745 362.617C308.982 364.993 304.61 364.215 303.114 362.223C307.122 361.584 308.575 359.911 309.505 356.023C309.762 354.969 309.666 353.2 311.151 354.127C312.263 354.82 312.167 360.7 310.734 362.617H310.745ZM315.993 370.628C314.09 371.256 312.583 368.582 314.603 367.709C316.72 366.793 317.478 369.413 315.993 370.628ZM322.908 361.818C321.957 364.758 317.884 362.287 318.504 359.848C319.285 356.769 323.87 358.825 322.908 361.818ZM324.992 353.509C323.645 354.255 317.703 354.575 316.046 354.681C315.597 354.713 314.518 355.022 314.112 354.862C313.641 354.67 311.878 352.125 311.29 351.528C315.095 351.059 319.37 351.475 322.897 349.717C324.436 348.94 325.141 348.002 325.772 346.426C326.018 345.808 327.258 342.58 326.894 342.122C325.836 340.79 325.355 343.049 324.992 343.699C324.041 345.424 322.641 346.852 320.866 347.704C318.205 348.971 313 349.738 310.724 347.395C308.511 345.126 308.073 339.938 307.346 336.966C306.246 332.482 305.391 327.944 304.91 323.353C304.653 320.881 304.482 318.399 304.354 315.917C304.279 314.628 303.413 311.177 304.215 310.165C304.963 309.228 307.25 308.961 308.319 308.333C310.05 307.321 311.525 305.947 312.84 304.445C315.159 311.198 317.275 318.048 319.798 324.716C321.091 328.125 322.534 331.523 323.998 334.857C325.644 338.607 327.012 342.378 328.668 346.095C329.748 348.524 326.584 352.625 325.013 353.499L324.992 353.509ZM331.736 356.79C330.998 358.271 328.433 358.463 328.861 356.29C329.256 354.33 331.757 354.884 331.736 356.79ZM339.068 356.204C337.903 358.047 335.327 356.183 336.47 354.511C337.7 352.7 340.179 354.457 339.068 356.204ZM341.291 343.166C341.226 344.828 341.365 347.011 340.136 348.119C338.854 349.27 336.951 348.087 335.583 347.683C333.831 347.171 332.035 346.724 331.437 344.828C335.273 345.041 338.266 343.986 339.495 339.992C340.553 336.572 338.758 331.704 340.842 328.732C341.088 328.38 342.808 331.576 342.883 331.97C343.118 333.281 342.765 334.516 342.466 335.773C341.943 337.978 341.568 340.226 341.333 342.484C341.312 342.697 341.301 342.932 341.291 343.166ZM342.584 353.754C341.301 352.295 343.588 349.76 344.999 351.496C346.218 352.998 343.963 355.31 342.584 353.754ZM346.677 360.785C346.549 362.543 344.23 363.011 343.588 361.328C342.733 359.091 346.87 358.218 346.677 360.785ZM347.607 344.519C346.805 345.872 344.508 345.893 344.604 343.933C344.711 341.707 347.628 342.303 347.607 344.519ZM353.603 337.691C353.186 339.523 350.397 339.193 349.916 337.616C349.082 334.857 354.287 334.665 353.603 337.691ZM350.888 328.807C349.702 329.488 348.419 330.053 347.19 330.649C346.848 330.82 346.485 330.98 346.1 330.98C345.576 330.969 345.106 330.617 344.818 330.17C344.24 329.286 343.642 327.315 344.379 326.388C345.309 325.206 347.404 325.59 348.665 325.057C350.033 324.482 351.262 323.64 352.171 322.458C353.453 320.775 353.656 318.953 353.635 316.897C353.624 315.811 353.239 311.955 354.885 311.773C355.334 311.72 355.772 312.029 355.997 312.423C356.221 312.817 356.296 313.275 356.339 313.733C356.692 317.142 356.585 321.35 355.131 324.535C354.223 326.527 352.652 327.795 350.888 328.807ZM359.021 332.918C357.696 335.56 353.956 332.546 356.179 330.713C357.653 329.499 359.951 331.076 359.021 332.918ZM361.48 324.535C361.394 324.428 361.319 324.322 361.255 324.215C360.828 323.416 360.721 321.723 361.993 321.765C363.158 321.797 364.152 322.788 364.622 323.789C365.819 326.325 362.613 325.888 361.48 324.546V324.535ZM365.488 331.597C364.472 333.813 361.565 331.789 362.933 329.978C364.087 328.434 366.3 329.829 365.488 331.597ZM367.304 318.112C366.471 318.815 365.445 319.145 364.066 318.751C363.414 318.559 362.752 318.325 362.249 317.867C361.191 316.887 360.55 314.128 361.576 312.956C362.997 311.326 366.375 310.186 368.48 310.644C370.97 311.188 370.265 313.606 369.357 315.246C368.758 316.322 368.127 317.398 367.283 318.101L367.304 318.112ZM374.711 309.536C372.937 309.654 368.213 306.277 370.051 304.519C371.964 302.687 376.774 307.757 374.711 309.536ZM370.051 298.138C370.906 296.274 373.803 297.308 373.567 299.204C373.215 301.995 369.036 300.354 370.051 298.138ZM375.502 270.08C377.661 269.505 378.377 272.626 376.464 273.201C374.177 273.894 374.294 271.113 375.502 270.08ZM371.868 280.21C372.317 277.824 375.833 278.602 375.224 280.988C374.658 283.182 371.43 282.533 371.868 280.21ZM370.511 288.391C372.488 287.603 374.326 289.915 372.531 291.395C370.522 293.047 368.491 290.053 370.511 288.391ZM365.765 262.964C366.385 260.706 369.805 261.601 369.153 263.838C368.555 265.883 365.199 265.041 365.765 262.964ZM360.967 256.722C362.003 255.167 364.665 255.646 364.045 257.798C363.382 260.056 360.881 258.554 360.967 256.722ZM349.071 249.958C355.58 255.369 361.127 262.538 364.387 270.346C365.787 273.691 366.973 277.313 366.449 280.977C366.172 282.927 364.6 289.052 361.961 289.212C360.699 289.286 357.889 286.921 356.692 286.186C355.056 285.164 353.389 284.173 351.722 283.204C350.193 282.32 348.654 281.457 347.115 280.583C332.719 272.445 318.28 264.413 304.161 255.806C302.43 254.751 300.709 253.686 298.957 252.663C287.67 246.091 274.738 242.096 261.635 244.61C260.994 244.738 257.317 245.718 257.659 244.568C257.894 243.769 259.839 243.684 260.481 243.502C265.771 242.022 271.062 240.584 276.405 239.284C299.983 233.542 329.481 233.681 349.071 249.958ZM352.032 238.443C350.61 238.688 349.36 236.77 350.942 235.971C352.716 235.087 353.731 237.399 352.032 238.443ZM357.311 238.027C356.179 238.315 354.8 237.281 355.911 236.312C356.916 235.428 358.829 236.909 357.311 238.027ZM363.574 237.015C361.875 237.335 360.892 234.991 362.655 234.416C364.419 233.841 364.451 236.11 363.574 237.015ZM349.937 234.831C349.285 234.789 348.644 234.704 348.035 234.597C345.309 234.096 342.872 232.722 340.318 231.732C337.678 230.698 334.825 230.379 332.046 229.942C323.656 228.6 315.063 228.056 306.566 228.461C290.246 229.239 272.911 233.841 258.076 240.616C261.582 236.397 266.38 233.351 270.752 230.102C275.935 226.246 281.311 222.624 286.954 219.449C298.315 213.047 310.585 208.797 323.688 208.243C337.165 207.668 350.386 211.141 362.313 217.276C368.224 220.323 369.666 225.191 364.504 230.208C361.041 233.574 354.949 235.194 349.937 234.853V234.831ZM368.651 236.163C367.251 236.578 365.926 235.087 367.133 233.915C368.523 232.573 370.179 234.767 368.651 236.163ZM372.68 229.441C372.071 231.337 369.068 230.581 369.292 228.664C369.538 226.459 373.429 227.13 372.68 229.441ZM373.161 223.114C371.515 223.135 370.981 220.515 372.819 220.568C374.519 220.621 374.423 222.336 373.161 223.114ZM373.343 218.352C371.43 219.077 369.346 217.234 371.238 215.593C373.225 213.868 375.449 216.541 373.343 218.352ZM376.475 232.349C375.074 232.509 374.027 230.634 375.566 229.921C377.223 229.154 377.736 231.401 376.475 232.349ZM379.018 221.282C377.49 220.334 378.954 217.969 380.461 218.97C381.85 219.897 380.536 222.23 379.018 221.282ZM381.947 236.088C380.087 236.248 379.307 233.585 381.327 233.223C383.133 232.903 383.315 235.247 381.947 236.088ZM388.028 231.007C387.9 231.124 387.761 231.231 387.611 231.337C384.843 233.287 381.134 231.135 380.493 228.046C380.247 226.874 380.718 225.702 381.402 224.765C382.267 223.572 383.496 222.762 385.025 222.933C386.179 223.061 387.237 223.657 388.113 224.403C390.208 226.192 389.984 229.282 388.017 231.007H388.028ZM394.109 219.492C393.201 221.164 390.454 221.111 390.582 218.842C390.721 216.296 394.312 217.053 394.109 219.492ZM394.58 209.575C394.376 211.322 391.982 211.13 391.726 209.511C391.384 207.327 394.857 207.263 394.58 209.575ZM398.32 215.125C398.139 216.84 395.916 216.477 396.172 214.88C396.396 213.452 398.491 213.516 398.32 215.125ZM398.833 210.64C397.529 210.906 396.076 209.468 397.519 208.499C398.929 207.561 400.383 209.532 398.833 210.64ZM401.056 200.403C400.255 206.294 390.379 204.621 391.106 198.976C391.266 197.719 392.057 196.611 393.03 195.79C394.344 194.693 396.589 193.095 398.299 194.193C399.122 194.725 399.667 195.588 400.116 196.451C400.554 197.314 400.939 198.219 401.056 199.167C401.11 199.604 401.11 200.019 401.056 200.403ZM401.89 194.118C400.319 194.587 398.748 192.563 400.501 191.732C402.05 190.997 402.916 193.053 401.89 194.118ZM403.771 163.588C402.937 166.795 398.245 165.005 399.528 161.959C400.661 159.285 404.487 160.84 403.771 163.588ZM404.626 156.494C402.456 157.133 400.896 153.852 403.354 153.128C405.716 152.425 406.186 155.248 404.626 156.494ZM405.866 146.193C405.235 148.515 401.719 148.92 401.687 146.055C401.655 143.157 406.678 143.232 405.866 146.193ZM406.357 138.854C405.128 141.836 400.522 140.217 401.933 137.139C403.14 134.497 407.533 135.988 406.357 138.854ZM412.257 135.36C410.119 137.373 407.822 135.179 406.261 133.655C407.512 132.452 409.361 130.673 411.231 131.088C413.23 131.535 413.753 133.943 412.257 135.36ZM413.55 127.85C412.738 130.278 409.297 129.352 409.457 126.902C409.671 123.738 414.555 124.835 413.55 127.85ZM410.184 120.414C410.718 119.083 413.422 118.976 413.133 120.702C412.834 122.438 410.333 121.991 410.184 120.414ZM418.37 119.253C417.28 117.943 418.83 115.855 420.23 117.219C421.491 118.454 419.621 119.637 418.37 119.253ZM421.502 126.071C419.909 126.294 419.012 123.919 420.69 123.344C422.731 122.641 422.699 125.133 421.502 126.071ZM427.305 117.591C426.119 117.783 425.018 116.164 426.397 115.546C427.776 114.928 428.31 116.782 427.305 117.591ZM416.062 114.534C404.594 117.059 393.233 121.426 383.251 127.637C379.018 130.268 374.936 133.229 370.767 135.988C372.627 127.392 366.46 124.057 358.679 123.365C366.738 119.615 374.583 116.026 383.208 113.629C391.309 111.381 399.539 110.742 407.918 110.699C412.043 110.678 416.169 110.763 420.294 111.019C424.281 111.264 429.069 111.126 432.927 112.212C427.273 112.691 421.609 113.309 416.062 114.534Z" fill="url(#paint0_linear_337_95)"/>
<defs>
<linearGradient id="paint0_linear_337_95" x1="153.08" y1="407.038" x2="293.288" y2="51.7401" gradientUnits="userSpaceOnUse">
<stop stop-color="#9D5A00"/>
<stop offset="1" stop-color="#FFD147"/>
</linearGradient>
</defs>
</svg>
